<svg xmlns="http://www.w3.org/2000/svg" xmlns:xlink="http://www.w3.org/1999/xlink" width="36" height="36" viewBox="0 0 36 36"><defs><path id="a" d="M0 0h36v36H0z"/></defs><clipPath id="b"><use xlink:href="#a" overflow="visible"/></clipPath><g clip-path="url(#b)"><defs><path id="c" d="M0 0h36v36H0z"/></defs><clipPath id="d"><use xlink:href="#c" overflow="visible"/></clipPath><path clip-path="url(#d)" fill="#cccccc" d="M34 12.946c-.004-.145-.024-.288-.058-.425l-2-8.956C31.738 2.65 30.927 2 29.99 2H6.007c-.937 0-1.748.65-1.952 1.564L2.05 12.558c-.014.058-.025.118-.033.177v.006c-.012.09-.017.18-.017.27V32c0 1.104.896 2 2 2h28c1.104 0 2-.896 2-2V12.947M4 13l2.007-9H29.99L32 13H4zm28 19H4V14h28v18zM26.76 6H9.24l-1.112 5H27.87l-1.11-5zM9.414 10l.662-3h15.85l.662 3H9.413zM7 18.5c.828 0 1.5-.67 1.5-1.5s-.672-1.5-1.5-1.5-1.5.67-1.5 1.5.672 1.5 1.5 1.5M7 30.5c.828 0 1.5-.67 1.5-1.5s-.672-1.5-1.5-1.5-1.5.67-1.5 1.5.672 1.5 1.5 1.5M29 18.5c.828 0 1.5-.67 1.5-1.5s-.672-1.5-1.5-1.5-1.5.67-1.5 1.5.672 1.5 1.5 1.5M29 30.5c.828 0 1.5-.67 1.5-1.5s-.672-1.5-1.5-1.5-1.5.67-1.5 1.5.672 1.5 1.5 1.5"/><path clip-path="url(#d)" fill="#cccccc" d="M27 18H9v10h18V18zm-17 9v-8h16v3H10v1h16v4H10z"/></g></svg>
