<?xml version="1.0" encoding="utf-8"?>
<!-- Generator: Adobe Illustrator 16.0.0, SVG Export Plug-In . SVG Version: 6.00 Build 0)  -->
<!DOCTYPE svg PUBLIC "-//W3C//DTD SVG 1.1//EN" "http://www.w3.org/Graphics/SVG/1.1/DTD/svg11.dtd">
<svg version="1.1" id="Layer_1" xmlns="http://www.w3.org/2000/svg" xmlns:xlink="http://www.w3.org/1999/xlink" x="0px" y="0px"
	 width="36px" height="36px" viewBox="0 0 36 36" enable-background="new 0 0 36 36" xml:space="preserve">
<g>
	<defs>
		<rect id="SVGID_1_" width="36" height="36"/>
	</defs>
	<clipPath id="SVGID_2_">
		<use xlink:href="#SVGID_1_"  overflow="visible"/>
	</clipPath>
	<g clip-path="url(#SVGID_2_)">
		<defs>
			<rect id="SVGID_3_" width="36" height="36"/>
		</defs>
		<clipPath id="SVGID_4_">
			<use xlink:href="#SVGID_3_"  overflow="visible"/>
		</clipPath>
		<path clip-path="url(#SVGID_4_)" fill="#231F20" d="M18,4c2.424,0.114,9.24,4.484,7.803,13.021L24,28H12.042l-1.845-10.979
			C8.76,8.484,15.576,4.114,18,4 M17.999,14c1.382,0,2.501-1.119,2.501-2.499C20.5,10.12,19.381,9,17.999,9
			c-0.344,0-0.674,0.069-0.972,0.198c-0.898,0.379-1.527,1.266-1.527,2.303C15.5,12.881,16.619,14,17.999,14 M17.999,22
			c1.382,0,2.501-1.119,2.501-2.499C20.5,18.12,19.381,17,17.999,17c-0.344,0-0.674,0.069-0.972,0.198
			c-0.898,0.379-1.527,1.266-1.527,2.303C15.5,20.881,16.619,22,17.999,22 M9.556,19.237l1.467,8.738L7,32c0,0-3-3-3-7
			C4,22.493,8.178,19.994,9.556,19.237 M26.451,19.241C27.836,20.002,32,22.498,32,25c0,4-3,7-3,7l-3.989-3.989L26.451,19.241
			 M21,29l2,3H13l2-3H21 M18,2c-0.031,0-0.062,0.001-0.094,0.002c-1.76,0.083-4.688,1.456-6.963,4.277
			c-1.729,2.145-3.605,5.807-2.718,11.074l0.051,0.307C5.34,19.321,2,21.893,2,25c0,4.773,3.439,8.268,3.586,8.414
			C5.961,33.789,6.47,34,7,34s1.039-0.211,1.414-0.586l3.424-3.424c0.031,0.003,0.062,0.005,0.094,0.007l-0.596,0.894
			c-0.409,0.613-0.447,1.402-0.1,2.054C11.585,33.594,12.263,34,13,34h10c0.737,0,1.415-0.406,1.764-1.056
			c0.348-0.651,0.31-1.44-0.1-2.054l-0.595-0.892c0.032-0.001,0.063-0.003,0.095-0.006l3.422,3.421C27.977,33.805,28.488,34,29,34
			s1.023-0.195,1.414-0.586C30.561,33.268,34,29.773,34,25c0-3.106-3.341-5.679-6.275-7.339l0.052-0.316
			c0.886-5.259-0.99-8.921-2.72-11.066c-2.274-2.821-5.203-4.194-6.963-4.277C18.062,2.001,18.031,2,18,2"/>
	</g>
</g>
</svg>
