<?xml version="1.0" encoding="utf-8"?>
<!-- Generator: Adobe Illustrator 16.0.0, SVG Export Plug-In . SVG Version: 6.00 Build 0)  -->
<!DOCTYPE svg PUBLIC "-//W3C//DTD SVG 1.1//EN" "http://www.w3.org/Graphics/SVG/1.1/DTD/svg11.dtd">
<svg version="1.1" id="Layer_1" xmlns="http://www.w3.org/2000/svg" xmlns:xlink="http://www.w3.org/1999/xlink" x="0px" y="0px"
	 width="36px" height="36px" viewBox="0 0 36 36" enable-background="new 0 0 36 36" xml:space="preserve">
<g>
	<defs>
		<rect id="SVGID_1_" width="36" height="36"/>
	</defs>
	<clipPath id="SVGID_2_">
		<use xlink:href="#SVGID_1_"  overflow="visible"/>
	</clipPath>
	<g clip-path="url(#SVGID_2_)">
		<defs>
			<rect id="SVGID_3_" width="36" height="36"/>
		</defs>
		<clipPath id="SVGID_4_">
			<use xlink:href="#SVGID_3_"  overflow="visible"/>
		</clipPath>
		<path clip-path="url(#SVGID_4_)" fill="#ce5d4b" d="M17.999,4c3.583,0,7.166,1.367,9.9,4.101c5.468,5.467,5.468,14.332,0,19.799
			c-2.734,2.733-6.317,4.1-9.9,4.1c-3.582,0-7.165-1.366-9.898-4.1c-5.467-5.468-5.467-14.333,0-19.799
			C10.834,5.367,14.417,4,17.999,4 M14.485,24.219l3.514-3.515l3.516,3.515l2.703-2.704L20.704,18l3.514-3.515l-2.703-2.702
			l-3.514,3.514l-3.516-3.515l-2.703,2.703l3.514,3.516l-3.514,3.514L14.485,24.219 M17.999,2C13.726,2,9.708,3.665,6.686,6.687
			c-6.237,6.238-6.237,16.389,0,22.627C9.708,32.336,13.726,34,17.999,34c4.273,0,8.292-1.664,11.314-4.686
			c6.238-6.238,6.238-16.39,0-22.627C26.291,3.664,22.272,2,17.999,2"/>
	</g>
</g>
</svg>
