<?xml version="1.0" encoding="utf-8"?>
<!-- Generator: Adobe Illustrator 16.0.0, SVG Export Plug-In . SVG Version: 6.00 Build 0)  -->
<!DOCTYPE svg PUBLIC "-//W3C//DTD SVG 1.1//EN" "http://www.w3.org/Graphics/SVG/1.1/DTD/svg11.dtd">
<svg version="1.1" id="Layer_1" xmlns="http://www.w3.org/2000/svg" xmlns:xlink="http://www.w3.org/1999/xlink" x="0px" y="0px"
	 width="36px" height="36px" viewBox="0 0 36 36" enable-background="new 0 0 36 36" xml:space="preserve">
<g>
	<defs>
		<rect id="SVGID_1_" width="36" height="36"/>
	</defs>
	<clipPath id="SVGID_2_">
		<use xlink:href="#SVGID_1_"  overflow="visible"/>
	</clipPath>
	<g clip-path="url(#SVGID_2_)">
		<defs>
			<rect id="SVGID_3_" width="36" height="36"/>
		</defs>
		<clipPath id="SVGID_4_">
			<use xlink:href="#SVGID_3_"  overflow="visible"/>
		</clipPath>
		<path clip-path="url(#SVGID_4_)" fill="#231F20" d="M26.484,9.515C24.216,7.25,21.203,6,17.996,6c-3.205,0-6.221,1.25-8.487,3.515
			c-4.679,4.679-4.679,12.292,0,16.971C11.775,28.751,14.792,30,17.996,30c3.207,0,6.22-1.249,8.488-3.515
			C28.752,24.22,30,21.206,30,18C30,14.796,28.752,11.781,26.484,9.515 M25.777,25.777C23.699,27.855,20.936,29,17.996,29
			c-2.94,0-5.701-1.145-7.78-3.223C8.142,23.704,7,20.941,7,18c0-2.942,1.142-5.704,3.216-7.778C12.295,8.144,15.058,7,17.996,7
			c2.938,0,5.701,1.145,7.781,3.222C27.855,12.299,29,15.062,29,18C29,20.939,27.855,23.702,25.777,25.777"/>
		<path clip-path="url(#SVGID_4_)" fill="#231F20" d="M18,2C9.178,2,2,9.178,2,18c0,8.822,7.178,16,16,16c8.822,0,16-7.178,16-16
			C34,9.178,26.822,2,18,2 M18,32c-7.732,0-14-6.268-14-14c0-7.732,6.268-14,14-14c7.732,0,14,6.268,14,14
			C32,25.732,25.732,32,18,32"/>
		<path clip-path="url(#SVGID_4_)" fill="#231F20" d="M10.676,11.407l2.033,2.033c0.225-0.262,0.469-0.507,0.733-0.732l-2.034-2.033
			C11.151,10.906,10.906,11.15,10.676,11.407"/>
		<path clip-path="url(#SVGID_4_)" fill="#231F20" d="M8.705,14.711l2.658,1.101c0.11-0.331,0.244-0.649,0.399-0.956l-2.659-1.102
			C8.955,14.065,8.822,14.383,8.705,14.711"/>
		<path clip-path="url(#SVGID_4_)" fill="#231F20" d="M18.52,11.034V8.155C18.346,8.146,18.176,8.129,18,8.129
			c-0.173,0-0.343,0.017-0.517,0.026v2.879c0.172-0.013,0.344-0.026,0.517-0.026C18.176,11.008,18.348,11.021,18.52,11.034"/>
		<path clip-path="url(#SVGID_4_)" fill="#231F20" d="M14.711,8.704c-0.328,0.117-0.646,0.25-0.957,0.398l1.102,2.66
			c0.308-0.156,0.625-0.29,0.957-0.4L14.711,8.704z"/>
		<path clip-path="url(#SVGID_4_)" fill="#231F20" d="M26.898,13.754l-2.658,1.102c0.154,0.306,0.289,0.625,0.398,0.956l2.658-1.101
			C27.18,14.383,27.049,14.065,26.898,13.754"/>
		<path clip-path="url(#SVGID_4_)" fill="#231F20" d="M24.594,10.675l-2.033,2.032c0.263,0.227,0.508,0.471,0.732,0.733l2.033-2.033
			C25.094,11.15,24.852,10.905,24.594,10.675"/>
		<path clip-path="url(#SVGID_4_)" fill="#231F20" d="M20.189,11.362c0.33,0.109,0.65,0.244,0.957,0.399l1.102-2.659
			c-0.311-0.148-0.631-0.281-0.957-0.398L20.189,11.362z"/>
		<path clip-path="url(#SVGID_4_)" fill="#231F20" d="M19,21.211V14c0-0.552-0.447-1-1-1c-0.553,0-1,0.448-1,1v7.211
			c-0.881,0.386-1.5,1.264-1.5,2.289c0,1.381,1.119,2.5,2.5,2.5s2.5-1.119,2.5-2.5C20.5,22.475,19.883,21.597,19,21.211"/>
	</g>
</g>
</svg>
