<svg xmlns="http://www.w3.org/2000/svg" xmlns:xlink="http://www.w3.org/1999/xlink" width="36" height="36" viewBox="0 0 36 36"><defs><path id="a" d="M0 0h36v36H0z"/></defs><clipPath id="b"><use xlink:href="#a" overflow="visible"/></clipPath><g clip-path="url(#b)"><defs><path id="c" d="M0 0h36v36H0z"/></defs><clipPath id="d"><use xlink:href="#c" overflow="visible"/></clipPath><path clip-path="url(#d)" fill="#231F20" d="M25 4l7 7h-7V4m-1 0v8h8v16H14V4h10m-7 12h12v-1H17v1zm0 3h12v-1H17v1zm0 3h12v-1H17v1zm0 3h12v-1H17v1zM13 8v8H7v1h6v2H7v1h6v2H7v1h6v2H7v1h6v3h9v3H4V8h9m11.468-6H14c-1.104 0-2 .896-2 2v2H4c-1.104 0-2 .896-2 2v24c0 1.104.896 2 2 2h18c1.104 0 2-.896 2-2v-2h8c1.104 0 2-.896 2-2V11.592c0-.173-.08-.94-.586-1.444l-7.53-7.562C25.5 2.203 24.988 2 24.467 2"/></g></svg>