<?xml version="1.0" encoding="utf-8"?>
<!-- Generator: Adobe Illustrator 17.1.0, SVG Export Plug-In . SVG Version: 6.00 Build 0)  -->
<!DOCTYPE svg PUBLIC "-//W3C//DTD SVG 1.1//EN" "http://www.w3.org/Graphics/SVG/1.1/DTD/svg11.dtd">
<svg version="1.1" id="Layer_1" xmlns="http://www.w3.org/2000/svg" xmlns:xlink="http://www.w3.org/1999/xlink" x="0px" y="0px"
	 viewBox="0 0 32 32" enable-background="new 0 0 32 32" xml:space="preserve">
<g>
	<defs>
		<rect id="SVGID_1_" width="32" height="32"/>
	</defs>
	<clipPath id="SVGID_2_">
		<use xlink:href="#SVGID_1_"  overflow="visible"/>
	</clipPath>
	<path clip-path="url(#SVGID_2_)" fill="#231F20" d="M16,2c2.761,0,5,2.24,5,5v4c0,3.451-3.334,5-5,5c-1.666-0.002-5-1.549-5-5V7
		C11,4.24,13.239,2,16,2 M25,8c1.656,0,3,1.344,3,3v2c0,2.07-2,2.999-3,3c-1,0-3-0.93-3-3v-2C22,9.344,23.344,8,25,8 M7,8
		c1.656,0,3,1.344,3,3v2c0,2.07-2,3-3,3c-1-0.001-3-0.93-3-3v-2C4,9.344,5.344,8,7,8 M25,17c4.285,0,5,4,5,6h-3.815
		c-0.276-0.805-0.632-1.62-1.122-2.404c-0.733-1.177-1.666-2.128-2.764-2.861C22.986,17.285,23.864,17,25,17 M16,17
		c8.572,0,10,7.333,10,11v2H6v-2C6,24.333,7.429,17,16,17 M7,17c1.136,0,2.015,0.286,2.701,0.735
		c-1.099,0.733-2.03,1.684-2.764,2.861C6.448,21.38,6.091,22.195,5.814,23H2C2,21,2.715,17,7,17 M16,0
		c-3.667,0-6.685,2.835-6.977,6.428C8.404,6.153,7.72,6,7,6c-2.757,0-5,2.243-5,5v2c0,1.269,0.46,2.314,1.142,3.115
		C1.357,17.285,0,19.456,0,23c0,1.105,0.895,2,2,2h2.266C4.085,26.003,4,27.016,4,28v2c0,1.105,0.895,2,2,2h20c1.104,0,2-0.895,2-2
		v-2c0-0.984-0.085-1.997-0.266-3H30c1.104,0,2-0.895,2-2c0-3.544-1.358-5.715-3.142-6.885C29.54,15.314,30,14.269,30,13v-2
		c0-2.757-2.243-5-5-5c-0.72,0-1.404,0.153-2.023,0.428C22.685,2.835,19.667,0,16,0"/>
</g>
</svg>
