<?xml version="1.0" encoding="utf-8"?>
<!-- Generator: Adobe Illustrator 17.1.0, SVG Export Plug-In . SVG Version: 6.00 Build 0)  -->
<!DOCTYPE svg PUBLIC "-//W3C//DTD SVG 1.1//EN" "http://www.w3.org/Graphics/SVG/1.1/DTD/svg11.dtd">
<svg version="1.1" id="Layer_1" xmlns="http://www.w3.org/2000/svg" xmlns:xlink="http://www.w3.org/1999/xlink" x="0px" y="0px"
	 viewBox="0 0 32 32" enable-background="new 0 0 32 32" xml:space="preserve">
<g>
	<defs>
		<rect id="SVGID_1_" width="32" height="32"/>
	</defs>
	<clipPath id="SVGID_2_">
		<use xlink:href="#SVGID_1_"  overflow="visible"/>
	</clipPath>
	<path clip-path="url(#SVGID_2_)" fill="#231F20" d="M22.879,9.871l1.326-0.633L23.704,8.19l-1.419,0.678
		c-0.116-0.127-0.357-0.297-0.493-0.391c-0.205-0.141-0.432-0.306-0.543-0.538c-0.185-0.389,0.015-0.781,0.636-1.078
		c0.575-0.274,1.248-0.368,1.884-0.182l0.322-1.327c-0.914-0.269-1.895-0.177-2.785,0.249c-1.502,0.717-2.082,1.745-1.559,2.839
		c0.155,0.325,0.462,0.611,0.708,0.79c0.108,0.085,0.286,0.194,0.43,0.306l-0.732,0.35l0.5,1.048l0.9-0.43
		c0.227,0.667,0.165,1.322-0.156,1.988l0.452,0.946l4.841-2.312l-0.532-1.113l-3.227,1.542C23.094,10.895,23.098,10.45,22.879,9.871
		"/>
	<path clip-path="url(#SVGID_2_)" fill="#231F20" d="M17.519,8.557c-3.559,2.231-6.932,4.86-10.999,5.967
		c0.123,0.27,0.245,0.538,0.367,0.808c4.067-1.108,7.442-3.737,10.999-5.968C17.763,9.095,17.641,8.826,17.519,8.557"/>
	<path clip-path="url(#SVGID_2_)" fill="#231F20" d="M31.824,12.959L31,11.122l-4.462-9.941C26.213,0.457,25.495,0,24.715,0
		c-0.072,0-0.146,0.004-0.219,0.012c-4.652,0.51-8.293,2.907-11.814,5.224C9.412,7.388,6.324,9.42,2.631,9.825
		c-0.636,0.07-1.2,0.439-1.518,0.994c-0.318,0.556-0.351,1.229-0.089,1.813l1.562,3.481c-0.276,0.052-0.542,0.092-0.804,0.12
		c-0.635,0.07-1.2,0.44-1.517,0.995c-0.319,0.554-0.352,1.228-0.09,1.812l2.088,4.653l3.197,7.126C5.785,31.543,6.504,32,7.284,32
		c0.073,0,0.146-0.004,0.219-0.012c4.652-0.51,8.293-2.907,11.815-5.224c3.269-2.152,6.358-4.184,10.051-4.59
		c0.637-0.069,1.2-0.439,1.519-0.995c0.317-0.555,0.35-1.229,0.088-1.812l-1.161-2.588l-0.404-0.898
		c0.267-0.046,0.535-0.085,0.807-0.115c0.637-0.07,1.2-0.439,1.518-0.994C32.054,14.217,32.087,13.543,31.824,12.959 M7.285,30
		C5.525,26.074,3.762,22.148,2,18.221c0.835-0.091,1.631-0.27,2.408-0.488l2.814,6.268l0.298,0.664l0.723-0.079
		c4.412-0.484,7.951-2.813,11.373-5.066c2.452-1.613,4.808-3.153,7.421-4.044c0.705,1.57,1.409,3.14,2.115,4.71
		C20.806,21.102,15.631,29.084,7.285,30 M8.134,23.592c-1.761-3.926-3.523-7.852-5.285-11.779C11.194,10.898,16.368,2.915,24.714,2
		C26.477,5.926,28.238,9.852,30,13.778C21.654,14.694,16.48,22.676,8.134,23.592"/>
	<path clip-path="url(#SVGID_2_)" fill="#231F20" d="M8.626,19.153c0.123,0.269,0.245,0.538,0.368,0.807
		c2.189-0.597,4.176-1.633,6.1-2.811c-0.123-0.269-0.245-0.538-0.368-0.807C12.803,17.519,10.814,18.556,8.626,19.153"/>
	<path clip-path="url(#SVGID_2_)" fill="#231F20" d="M7.573,16.838c0.122,0.27,0.245,0.539,0.367,0.809
		c4.068-1.11,7.442-3.739,10.999-5.969c-0.122-0.27-0.246-0.538-0.368-0.808C15.014,13.1,11.639,15.729,7.573,16.838"/>
</g>
</svg>
