<?xml version="1.0" encoding="utf-8"?>
<!-- Generator: Adobe Illustrator 16.0.0, SVG Export Plug-In . SVG Version: 6.00 Build 0)  -->
<!DOCTYPE svg PUBLIC "-//W3C//DTD SVG 1.1//EN" "http://www.w3.org/Graphics/SVG/1.1/DTD/svg11.dtd">
<svg version="1.1" id="Layer_1" xmlns="http://www.w3.org/2000/svg" xmlns:xlink="http://www.w3.org/1999/xlink" x="0px" y="0px"
	 width="36px" height="36px" viewBox="0 0 36 36" enable-background="new 0 0 36 36" xml:space="preserve">
<g>
	<defs>
		<rect id="SVGID_1_" width="36" height="36"/>
	</defs>
	<clipPath id="SVGID_2_">
		<use xlink:href="#SVGID_1_"  overflow="visible"/>
	</clipPath>
	<g clip-path="url(#SVGID_2_)">
		<defs>
			<rect id="SVGID_3_" width="36" height="36"/>
		</defs>
		<clipPath id="SVGID_4_">
			<use xlink:href="#SVGID_3_"  overflow="visible"/>
		</clipPath>
		<path clip-path="url(#SVGID_4_)" fill="#FFFFFF" d="M30,7H6V4h24V7z M31,12H5V8h26V12z M32,13v19h-8v-3h2v-1h-5v1h2v3H13v-3h2v-1
			h-5v1h2v3H4V13H32 M9.499,19.168c1.035,0,1.871-0.838,1.871-1.872c0-1.031-0.836-1.869-1.871-1.869
			c-1.031,0-1.87,0.838-1.87,1.869C7.629,18.33,8.468,19.168,9.499,19.168 M17,18h12v-1H17V18z M17,21h12v-1H17V21z M7,25h5v-2.454
			c0-1.394-1.013-2.524-2.501-2.524C8.013,20.021,7,21.152,7,22.546V25 M17,24h12v-1H17V24z M30,2H6C4.896,2,4,2.896,4,4v2.268
			C3.402,6.613,3,7.26,3,8v3.268C2.402,11.613,2,12.26,2,13v19c0,1.104,0.896,2,2,2h28c1.104,0,2-0.896,2-2V13
			c0-0.74-0.402-1.387-1-1.732V8c0-0.74-0.402-1.387-1-1.732V4C32,2.896,31.104,2,30,2"/>
	</g>
</g>
</svg>
