<?xml version="1.0" encoding="utf-8"?>
<!-- Generator: Adobe Illustrator 16.0.0, SVG Export Plug-In . SVG Version: 6.00 Build 0)  -->
<!DOCTYPE svg PUBLIC "-//W3C//DTD SVG 1.1//EN" "http://www.w3.org/Graphics/SVG/1.1/DTD/svg11.dtd">
<svg version="1.1" id="Layer_1" xmlns="http://www.w3.org/2000/svg" xmlns:xlink="http://www.w3.org/1999/xlink" x="0px" y="0px"
	 width="36px" height="36px" viewBox="0 0 36 36" enable-background="new 0 0 36 36" xml:space="preserve">
<g>
	<defs>
		<rect id="SVGID_1_" width="36" height="36"/>
	</defs>
	<clipPath id="SVGID_2_">
		<use xlink:href="#SVGID_1_"  overflow="visible"/>
	</clipPath>
	<g clip-path="url(#SVGID_2_)">
		<defs>
			<rect id="SVGID_3_" width="36" height="36"/>
		</defs>
		<clipPath id="SVGID_4_">
			<use xlink:href="#SVGID_3_"  overflow="visible"/>
		</clipPath>
		<path clip-path="url(#SVGID_4_)" fill="#FFFFFF" d="M26.057,3.94c0.523,0,1.048,0.067,1.558,0.203l-3.671,3.671l0.707,3.535
			l3.536,0.707l3.67-3.67c0.532,2.001,0.02,4.222-1.55,5.792c-1.17,1.169-2.7,1.753-4.233,1.753c-1.027,0-2.053-0.262-2.972-0.784
			l-2.146,2.146l-2.247-2.249l2.146-2.145c-1.305-2.29-0.986-5.253,0.968-7.207C22.992,4.522,24.524,3.94,26.057,3.94 M9.926,3.94
			c0.026,0,0.052,0.005,0.077,0.005c0.317,0.003,0.633,0.037,0.946,0.09c0.087,0.015,0.174,0.031,0.261,0.05
			c0.332,0.071,0.661,0.161,0.981,0.29c0.012,0.004,0.023,0.012,0.035,0.017c0.308,0.126,0.603,0.288,0.892,0.469
			c0.075,0.047,0.149,0.096,0.223,0.147c0.293,0.203,0.577,0.423,0.838,0.684c1.952,1.953,2.272,4.915,0.969,7.206l2.853,2.854
			L20.248,18l2.854,2.853c0.262-0.148,0.532-0.271,0.809-0.377c0.091-0.034,0.184-0.061,0.275-0.091
			c0.19-0.063,0.385-0.119,0.579-0.163c0.105-0.022,0.211-0.043,0.316-0.061c0.196-0.034,0.392-0.054,0.588-0.067
			c0.099-0.007,0.196-0.017,0.294-0.019h0.024c0.109,0,0.22,0.011,0.332,0.017c0.245,0.01,0.49,0.03,0.732,0.07
			c0.127,0.021,0.253,0.049,0.379,0.079c0.228,0.053,0.449,0.119,0.671,0.198c0.123,0.045,0.246,0.09,0.367,0.143
			c0.229,0.1,0.446,0.219,0.662,0.348c0.102,0.061,0.205,0.112,0.304,0.179c0.306,0.209,0.601,0.441,0.871,0.713
			c1.57,1.569,2.082,3.79,1.55,5.791l-3.67-3.67l-3.535,0.707l-0.707,3.536l3.67,3.67c-0.252,0.067-0.508,0.117-0.766,0.151
			c-0.114,0.015-0.229,0.015-0.347,0.023c-0.142,0.011-0.285,0.027-0.427,0.028c-0.026,0-0.052-0.004-0.078-0.005
			c-0.316-0.003-0.632-0.037-0.945-0.092c-0.088-0.013-0.175-0.029-0.262-0.048c-0.332-0.071-0.661-0.162-0.979-0.29
			c-0.013-0.005-0.024-0.013-0.035-0.018c-0.309-0.126-0.604-0.288-0.893-0.468c-0.075-0.048-0.148-0.097-0.223-0.148
			c-0.293-0.202-0.578-0.423-0.838-0.684c-1.953-1.954-2.272-4.917-0.968-7.206l-2.854-2.854L12.9,15.146
			c-0.263,0.149-0.536,0.272-0.814,0.379c-0.086,0.032-0.174,0.058-0.261,0.087c-0.197,0.064-0.395,0.122-0.595,0.166
			c-0.102,0.023-0.203,0.043-0.305,0.059c-0.2,0.034-0.401,0.056-0.602,0.069c-0.094,0.007-0.188,0.016-0.283,0.018h-0.024
			c-0.114,0-0.229-0.011-0.343-0.017c-0.242-0.01-0.483-0.029-0.722-0.07c-0.13-0.02-0.258-0.049-0.386-0.08
			c-0.225-0.051-0.445-0.118-0.664-0.196c-0.125-0.045-0.25-0.09-0.372-0.143c-0.226-0.1-0.445-0.219-0.659-0.347
			c-0.102-0.061-0.207-0.113-0.305-0.18c-0.306-0.209-0.601-0.441-0.872-0.713c-1.57-1.569-2.081-3.79-1.549-5.792l3.671,3.671
			l3.535-0.707l0.707-3.536l-3.67-3.67c0.252-0.067,0.508-0.117,0.765-0.151c0.115-0.016,0.23-0.016,0.346-0.024
			C9.641,3.958,9.784,3.941,9.926,3.94 M15.045,18.707l2.248,2.248l-2.146,2.146c1.304,2.29,0.984,5.252-0.969,7.205
			c-1.17,1.17-2.701,1.753-4.233,1.753c-0.525,0-1.048-0.068-1.558-0.204l3.67-3.67L11.35,24.65l-3.536-0.707l-3.67,3.67
			c-0.533-2.001-0.021-4.222,1.549-5.792c1.17-1.17,2.701-1.753,4.234-1.753c1.026,0,2.054,0.262,2.972,0.785L15.045,18.707
			 M26.057,1.94c-2.136,0-4.142,0.83-5.648,2.338c-2.161,2.16-2.867,5.346-1.933,8.171l-0.475,0.474l-0.475-0.475
			c0.932-2.825,0.226-6.01-1.932-8.17c-0.32-0.32-0.676-0.61-1.117-0.916c-0.095-0.066-0.197-0.134-0.302-0.198
			c-0.389-0.245-0.759-0.44-1.124-0.594c-0.031-0.016-0.063-0.03-0.092-0.042c-0.411-0.166-0.839-0.294-1.329-0.399
			c-0.112-0.024-0.22-0.043-0.332-0.063c-0.438-0.074-0.831-0.113-1.212-0.12C10.033,1.942,9.979,1.94,9.926,1.94H9.912
			C9.756,1.941,9.599,1.954,9.443,1.966L9.348,1.975L9.293,1.977C9.156,1.983,9.02,1.992,8.883,2.01
			C8.54,2.055,8.199,2.125,7.87,2.211C7.18,2.396,6.641,2.936,6.455,3.625C6.27,4.315,6.467,5.052,6.973,5.558L9.886,8.47L9.65,9.65
			L8.472,9.885L5.558,6.971c-0.38-0.38-0.891-0.586-1.414-0.586c-0.173,0-0.348,0.023-0.52,0.069
			C2.934,6.641,2.395,7.18,2.211,7.873c-0.732,2.754,0.06,5.712,2.068,7.719c0.337,0.337,0.715,0.648,1.157,0.951
			c0.12,0.08,0.23,0.145,0.343,0.208l0.066,0.038c0.315,0.187,0.601,0.337,0.876,0.458c0.167,0.074,0.334,0.135,0.503,0.196
			c0.308,0.11,0.599,0.195,0.892,0.264c0.166,0.039,0.343,0.078,0.523,0.106c0.277,0.047,0.596,0.078,0.953,0.092l0.065,0.005
			c0.119,0.008,0.239,0.014,0.359,0.014h0.057c0.119-0.003,0.227-0.01,0.336-0.019l0.059-0.004c0.252-0.017,0.523-0.047,0.784-0.091
			c0.14-0.022,0.284-0.05,0.428-0.083c0.224-0.05,0.48-0.12,0.76-0.212L12.925,18l-0.476,0.476c-0.81-0.269-1.663-0.407-2.522-0.407
			c-2.134,0-4.14,0.83-5.648,2.338c-2.009,2.011-2.801,4.969-2.068,7.721c0.185,0.692,0.723,1.232,1.414,1.417
			c0.171,0.047,0.346,0.069,0.519,0.069c0.523,0,1.034-0.206,1.414-0.586l2.913-2.913l1.18,0.235l0.235,1.179l-2.913,2.913
			c-0.506,0.506-0.703,1.242-0.518,1.933c0.186,0.69,0.726,1.229,1.417,1.414c0.675,0.18,1.373,0.271,2.073,0.271
			c2.134,0,4.14-0.831,5.648-2.339c2.159-2.16,2.866-5.345,1.932-8.169l0.476-0.476l0.475,0.475
			c-0.935,2.824-0.229,6.009,1.932,8.17c0.32,0.32,0.675,0.611,1.117,0.916c0.089,0.062,0.186,0.126,0.285,0.189
			c0.408,0.255,0.778,0.45,1.141,0.604c0.031,0.015,0.062,0.029,0.091,0.041c0.419,0.168,0.846,0.295,1.329,0.398
			c0.126,0.027,0.25,0.05,0.375,0.07c0.392,0.067,0.783,0.104,1.166,0.113c0.055,0.004,0.11,0.006,0.164,0.006
			c0.169-0.001,0.327-0.014,0.482-0.026l0.096-0.008l0.074-0.004c0.125-0.006,0.25-0.014,0.374-0.029
			c0.358-0.048,0.7-0.116,1.028-0.204c0.691-0.185,1.23-0.724,1.415-1.414c0.187-0.689-0.011-1.427-0.517-1.932l-2.913-2.913
			l0.236-1.179l1.178-0.236l2.913,2.913c0.38,0.38,0.89,0.586,1.414,0.586c0.173,0,0.347-0.022,0.518-0.068
			c0.691-0.186,1.23-0.726,1.414-1.417c0.734-2.754-0.058-5.712-2.067-7.721c-0.337-0.336-0.715-0.646-1.156-0.949
			c-0.113-0.076-0.227-0.143-0.339-0.206l-0.062-0.035c-0.327-0.195-0.608-0.342-0.891-0.466c-0.157-0.068-0.315-0.127-0.472-0.185
			c-0.319-0.114-0.62-0.203-0.916-0.272c-0.166-0.038-0.331-0.074-0.498-0.103c-0.312-0.052-0.633-0.083-0.987-0.097l-0.072-0.005
			c-0.114-0.008-0.227-0.014-0.339-0.014h-0.058c-0.107,0.003-0.21,0.009-0.311,0.017l-0.07,0.006
			c-0.304,0.021-0.559,0.051-0.803,0.092c-0.127,0.021-0.262,0.047-0.398,0.076c-0.27,0.061-0.521,0.131-0.786,0.219L23.078,18
			l0.473-0.475c0.812,0.268,1.662,0.406,2.522,0.406c2.133,0,4.139-0.83,5.647-2.338c2.01-2.01,2.802-4.968,2.067-7.721
			c-0.184-0.692-0.723-1.232-1.414-1.417c-0.171-0.046-0.345-0.069-0.518-0.069c-0.524,0-1.034,0.206-1.414,0.586l-2.913,2.913
			L26.349,9.65l-0.234-1.179l2.914-2.914c0.506-0.506,0.703-1.243,0.517-1.933c-0.186-0.691-0.726-1.23-1.418-1.413
			C27.453,2.031,26.756,1.94,26.057,1.94"/>
	</g>
</g>
</svg>
