<?xml version="1.0" encoding="utf-8"?>


<!-- The icon can be used freely in both personal and commercial projects with no attribution required, but always appreciated.
You may NOT sub-license, resell, rent, redistribute or otherwise transfer the icon without express written permission from iconmonstr.com -->


<!DOCTYPE svg PUBLIC "-//W3C//DTD SVG 1.1//EN" "http://www.w3.org/Graphics/SVG/1.1/DTD/svg11.dtd">

<svg version="1.1" xmlns="http://www.w3.org/2000/svg" xmlns:xlink="http://www.w3.org/1999/xlink" x="0px" y="0px"

	 width="512px" height="512px" viewBox="0 0 512 512" enable-background="new 0 0 512 512" xml:space="preserve">

<path id="refresh-4-icon" fill="#ffffff" d="M372.53,146.186c-75.306-59.495-196.93-9.526-196.93,100.527c0,0.02,0-0.019,0,0h36.396l-81.045,86.137

	L50,246.713h35.279c0-0.011,0,0.008,0,0C85.279,109.55,280.102,40.558,372.53,146.186z M139.469,365.813

	c75.306,59.495,196.93,9.526,196.93-100.526c0-0.021,0,0.02,0,0h-36.396l81.045-86.138L462,265.287h-35.28c0,0.01,0-0.01,0,0

	C426.72,402.449,231.897,471.442,139.469,365.813z"/>

</svg>

