<!-- Generator: Adobe Illustrator 17.0.0, SVG Export Plug-In  -->
<svg version="1.1"
	 xmlns="http://www.w3.org/2000/svg" xmlns:xlink="http://www.w3.org/1999/xlink" xmlns:a="http://ns.adobe.com/AdobeSVGViewerExtensions/3.0/"
	 x="0px" y="0px" width="370.422px" height="75.203px" viewBox="0 0 370.422 75.203" enable-background="new 0 0 370.422 75.203"
	 xml:space="preserve">
<defs>
</defs>
<g>
	<defs>
		<path id="SVGID_1_" d="M326.609,43.484h33.703c-0.062-4.469-1.547-8.531-4.453-12.188c-2.906-3.656-7.047-5.484-12.422-5.484
			c-5.062,0-9.086,1.812-12.07,5.438C328.383,34.875,326.797,38.953,326.609,43.484z M321.266,45.781
			c0-6.781,2.109-12.523,6.328-17.227c4.219-4.703,9.531-7.055,15.938-7.055c6.781,0,12.125,2.336,16.031,7.008
			c3.906,4.672,5.859,10.539,5.859,17.602v1.312h-38.812c0.25,5.25,2.008,9.633,5.273,13.148c3.266,3.516,7.555,5.273,12.867,5.273
			c6.156,0,11.219-2.141,15.188-6.422l2.578,3.281c-4.812,5-10.859,7.5-18.141,7.5c-6.781,0-12.328-2.273-16.641-6.82
			S321.266,52.969,321.266,45.781z M94.359,45.805c0,3.391,0.961,6.125,2.883,8.203c1.922,2.078,4.352,3.117,7.289,3.117
			c1.594,0,3.242-0.398,4.945-1.195c1.703-0.797,3.023-1.805,3.961-3.023V38.703c-0.969-1.219-2.297-2.211-3.984-2.977
			c-1.688-0.766-3.328-1.148-4.922-1.148c-3,0-5.445,1.023-7.336,3.07C95.305,39.695,94.359,42.414,94.359,45.805z M280.75,62.797
			l2.953-3.656c1.594,1.969,3.703,3.594,6.328,4.875c2.625,1.281,5.516,1.922,8.672,1.922c3.781,0,6.789-0.875,9.023-2.625
			c2.234-1.75,3.352-4,3.352-6.75c0-2.313-1.008-4.141-3.023-5.484c-2.016-1.344-4.445-2.352-7.289-3.023
			c-2.844-0.672-5.711-1.406-8.602-2.203c-2.891-0.797-5.344-2.141-7.359-4.031c-2.016-1.891-3.023-4.367-3.023-7.43
			c0-3.656,1.492-6.719,4.477-9.187c2.984-2.469,7.008-3.703,12.07-3.703c6.969,0,12.5,2.281,16.594,6.844l-2.766,3.516
			c-3-4.094-7.609-6.141-13.828-6.141c-3.531,0-6.336,0.805-8.414,2.414c-2.078,1.609-3.117,3.633-3.117,6.07
			c0,2.125,1.008,3.789,3.023,4.992c2.016,1.203,4.445,2.141,7.289,2.812c2.844,0.672,5.688,1.422,8.531,2.25
			c2.844,0.828,5.273,2.266,7.289,4.312c2.016,2.047,3.023,4.711,3.023,7.992c0,3.969-1.5,7.234-4.5,9.797
			c-3,2.563-7.281,3.844-12.844,3.844C291.047,70.203,285.094,67.734,280.75,62.797z M149.078,40.625h19.078
			c-0.25-1.906-1.141-3.586-2.672-5.039c-1.531-1.453-3.844-2.18-6.938-2.18c-2.938,0-5.172,0.711-6.703,2.133
			C150.312,36.961,149.391,38.656,149.078,40.625z M242.531,54.805c0,3.328,1.172,6.07,3.516,8.227s5.406,3.234,9.188,3.234
			c6.094,0,10.766-2.125,14.016-6.375V49.719c-3.25-4.281-7.922-6.422-14.016-6.422c-3.781,0-6.844,1.086-9.188,3.258
			C243.703,48.727,242.531,51.477,242.531,54.805z M12.148,28.273c4.766-4.516,10.805-6.773,18.117-6.773
			c4.594,0,8.508,0.836,11.742,2.508c3.234,1.672,5.648,3.695,7.242,6.07l-9.562,8.906c-1.969-2.938-4.891-4.406-8.766-4.406
			c-3.125,0-5.711,1.008-7.758,3.023c-2.047,2.016-3.07,4.75-3.07,8.203s1.023,6.203,3.07,8.25c2.047,2.047,4.633,3.07,7.758,3.07
			c3.719,0,6.641-1.5,8.766-4.5l9.562,9c-1.594,2.375-4.008,4.398-7.242,6.07c-3.234,1.672-7.148,2.508-11.742,2.508
			c-7.281,0-13.312-2.273-18.094-6.82S5,52.977,5,45.805S7.383,32.789,12.148,28.273z M237.281,54.734
			c0-4.813,1.609-8.578,4.828-11.297c3.219-2.719,7.016-4.078,11.391-4.078c6.531,0,11.781,2.203,15.75,6.609v-9.375
			c0-3.313-1.172-5.922-3.516-7.828c-2.344-1.906-5.312-2.859-8.906-2.859c-5.75,0-10.609,2.281-14.578,6.844l-2.766-3.469
			c4.812-5.188,10.766-7.781,17.859-7.781c5,0,9.062,1.25,12.188,3.75c3.125,2.5,4.688,6.219,4.688,11.156v32.625h-4.969v-5.484
			c-4.031,4.406-9.281,6.625-15.75,6.656c-4.281,0-8.055-1.398-11.32-4.195C238.914,63.211,237.281,59.453,237.281,54.734z
			 M139.898,28.508c4.609-4.672,10.492-7.008,17.648-7.008c6.969,0,12.664,2.352,17.086,7.055
			c4.422,4.703,6.633,10.961,6.633,18.773v3.375h-33c0.563,2.25,1.836,4.078,3.82,5.484c1.984,1.406,4.586,2.109,7.805,2.109
			c1.781,0,3.789-0.367,6.023-1.102c2.234-0.734,3.992-1.68,5.273-2.836l6.469,9.703c-2.25,1.969-5.117,3.484-8.602,4.547
			c-3.484,1.063-7.086,1.594-10.805,1.594c-7.281,0-13.312-2.227-18.094-6.68c-4.781-4.453-7.172-10.367-7.172-17.742
			C132.984,38.937,135.289,33.18,139.898,28.508z M201.289,63.266c2.828,1.594,5.805,2.391,8.93,2.391
			c5.062,0,9.031-1.852,11.906-5.555c2.875-3.703,4.312-8.445,4.312-14.227c0-5.813-1.438-10.578-4.312-14.297
			C219.25,27.859,215.281,26,210.219,26c-3.062,0-6.023,0.836-8.883,2.508c-2.859,1.672-4.992,3.664-6.398,5.977v22.922
			C196.344,59.719,198.461,61.672,201.289,63.266z M85.031,28.062c3.844-4.375,8.734-6.562,14.672-6.562
			c5.625,0,10.203,2.219,13.734,6.656V5h14.719v64.031h-14.719v-5.391c-3.781,4.344-8.359,6.531-13.734,6.562
			c-5.938,0-10.828-2.164-14.672-6.492c-3.844-4.328-5.766-10.305-5.766-17.93C79.266,38.344,81.187,32.438,85.031,28.062z
			 M189.969,69.031V5h4.969v25.172c4.094-5.75,9.469-8.641,16.125-8.672c6.219,0,11.234,2.227,15.047,6.68
			c3.812,4.453,5.719,10.359,5.719,17.719s-1.906,13.25-5.719,17.672c-3.812,4.422-8.828,6.633-15.047,6.633
			c-3.312,0-6.391-0.805-9.234-2.414c-2.844-1.609-5.141-3.664-6.891-6.164v7.406H189.969z"/>
	</defs>
	<clipPath id="SVGID_2_">
		<use xlink:href="#SVGID_1_"  overflow="visible"/>
	</clipPath>
	<rect x="0" y="0" clip-path="url(#SVGID_2_)" fill-rule="evenodd" clip-rule="evenodd" width="370.422" height="75.203"/>
</g>
<g>
	<defs>
		<path id="SVGID_3_" d="M67.021,61.461l-4.1,4.328L43.059,45.587v-0.767L62.92,24.531l4.075,4.304l4.402-4.304L91.43,44.819v0.767
			L71.398,65.789L67.021,61.461z M67.314,35.716l-9.594,9.53l9.691,9.37l9.186-9.37L67.314,35.716z"/>
	</defs>
	<clipPath id="SVGID_4_">
		<use xlink:href="#SVGID_3_"  overflow="visible"/>
	</clipPath>
	
		<rect x="38.059" y="19.531" clip-path="url(#SVGID_4_)" fill-rule="evenodd" clip-rule="evenodd" fill="#FFFFFF" width="58.372" height="51.258"/>
</g>
<g>
	<defs>
		<path id="SVGID_5_" d="M63.021,61.461l-4.1,4.328L39.059,45.587v-0.767L58.92,24.531l4.075,4.304l4.402-4.304L87.43,44.819v0.767
			L67.398,65.789L63.021,61.461z M63.314,35.716l-9.594,9.53l9.691,9.37l9.186-9.37L63.314,35.716z"/>
	</defs>
	<clipPath id="SVGID_6_">
		<use xlink:href="#SVGID_5_"  overflow="visible"/>
	</clipPath>
	
		<rect x="34.059" y="19.531" clip-path="url(#SVGID_6_)" fill-rule="evenodd" clip-rule="evenodd" fill="#E22C2C" width="58.372" height="51.258"/>
</g>
</svg>
