<svg xmlns="http://www.w3.org/2000/svg"><symbol id="icon-account" viewBox="0 0 36 36"><defs xmlns="http://www.w3.org/2000/svg"><path id="a" d="M0 0h36v36H0z"/></defs><clipPath xmlns="http://www.w3.org/2000/svg" xmlns:xlink="http://www.w3.org/1999/xlink" id="b"><use xlink:href="#a" overflow="visible"/></clipPath><g xmlns="http://www.w3.org/2000/svg" xmlns:xlink="http://www.w3.org/1999/xlink" clip-path="url(#b)"><defs><path id="c" d="M0 0h36v36H0z"/></defs><clipPath id="d"><use xlink:href="#c" overflow="visible"/></clipPath><path clip-path="url(#d)" fill="#fff" d="M26.057 3.94c.523 0 1.048.067 1.558.203l-3.67 3.67.706 3.536 3.537.706 3.67-3.67c.532 2 .02 4.222-1.55 5.792-1.17 1.17-2.7 1.753-4.233 1.753-1.027 0-2.053-.26-2.972-.783l-2.146 2.146-2.247-2.25 2.145-2.144c-1.305-2.29-.986-5.254.968-7.208 1.17-1.17 2.7-1.752 4.234-1.752m-16.13 0c.025 0 .05.005.076.005.317.003.633.037.946.09.086.015.173.03.26.05.332.07.66.16.98.29.013.004.024.012.036.017.308.126.603.288.892.47.075.046.15.095.223.146.294.203.578.423.84.684 1.95 1.953 2.27 4.915.968 7.206L18 15.752 20.25 18l2.854 2.853c.262-.148.532-.27.81-.377.09-.034.183-.06.274-.09.19-.064.385-.12.58-.164.104-.022.21-.043.315-.06.197-.035.393-.055.59-.068.098-.007.195-.017.293-.02h.024c.11 0 .22.012.332.018.244.01.49.03.73.07.128.02.254.05.38.08.228.052.45.118.67.197.124.044.247.09.368.142.23.1.446.22.662.348.102.06.205.112.304.18.306.208.6.44.87.712 1.57 1.57 2.083 3.79 1.55 5.79l-3.67-3.67-3.534.708-.707 3.536 3.67 3.67c-.252.067-.508.117-.766.15-.114.016-.23.016-.347.024-.142.01-.285.027-.427.028-.026 0-.052-.004-.078-.005-.316-.003-.632-.037-.945-.092-.088-.012-.175-.028-.262-.047-.332-.07-.66-.162-.98-.29-.012-.005-.023-.013-.034-.018-.31-.126-.604-.288-.893-.468-.074-.048-.147-.097-.222-.148-.293-.203-.578-.424-.838-.685-1.953-1.954-2.272-4.917-.968-7.206l-2.854-2.855-5.098-5.1c-.263.15-.536.273-.814.38-.086.032-.174.058-.26.087-.198.064-.396.122-.596.166-.102.023-.203.043-.305.06-.2.033-.4.055-.602.068-.094.007-.188.016-.283.018h-.024c-.114 0-.23-.01-.343-.017-.242-.01-.483-.03-.722-.07-.13-.02-.257-.05-.385-.08-.225-.05-.445-.118-.664-.196-.124-.044-.25-.09-.37-.142-.227-.1-.446-.22-.66-.347-.102-.06-.207-.112-.305-.18-.306-.208-.6-.44-.872-.712-1.57-1.57-2.08-3.79-1.55-5.792l3.672 3.67 3.535-.706.707-3.536-3.67-3.67c.252-.067.508-.117.765-.15.115-.017.23-.017.346-.025.143-.012.286-.03.428-.03m5.12 14.767l2.247 2.248-2.146 2.146c1.304 2.29.984 5.253-.97 7.206-1.17 1.17-2.7 1.753-4.232 1.753-.525 0-1.048-.07-1.558-.205l3.67-3.67-.707-3.535-3.536-.707-3.67 3.67c-.533-2-.02-4.222 1.55-5.792 1.17-1.17 2.7-1.752 4.233-1.752 1.026 0 2.054.262 2.972.785l2.145-2.146M26.057 1.94c-2.136 0-4.142.83-5.648 2.338-2.162 2.16-2.868 5.346-1.934 8.17l-.475.475-.474-.475c.932-2.825.226-6.01-1.932-8.17-.32-.32-.676-.61-1.117-.916-.095-.066-.197-.134-.302-.198-.39-.245-.76-.44-1.124-.594-.03-.016-.062-.03-.09-.042-.412-.166-.84-.294-1.33-.4-.112-.023-.22-.042-.332-.062-.438-.074-.83-.113-1.212-.12-.053-.004-.107-.006-.16-.006h-.014c-.156 0-.313.014-.47.026l-.094.01h-.055c-.137.007-.273.016-.41.034-.343.045-.684.115-1.013.2-.69.186-1.23.726-1.415 1.415-.185.69.012 1.427.518 1.933L9.886 8.47 9.65 9.65l-1.178.235L5.558 6.97c-.38-.38-.89-.585-1.414-.585-.173 0-.348.023-.52.07-.69.186-1.23.725-1.413 1.418-.73 2.754.06 5.712 2.07 7.72.336.336.714.647 1.156.95.12.08.23.145.343.208l.065.04c.315.186.6.336.876.457.168.074.335.135.504.196.308.11.6.195.892.264.166.04.343.078.523.106.276.047.595.078.952.092l.065.005c.12.008.24.014.36.014h.056c.12-.003.227-.01.336-.02l.058-.003c.252-.016.523-.046.784-.09.14-.022.284-.05.428-.083.224-.05.48-.12.76-.212l.485.485-.476.476c-.81-.27-1.664-.407-2.523-.407-2.134 0-4.14.83-5.648 2.337-2.01 2.01-2.802 4.97-2.07 7.72.186.693.724 1.233 1.415 1.418.17.047.346.07.52.07.522 0 1.033-.207 1.413-.587l2.913-2.913 1.18.235.236 1.18-2.913 2.912c-.506.506-.703 1.242-.518 1.933.186.69.726 1.23 1.417 1.414.675.18 1.373.27 2.073.27 2.134 0 4.14-.83 5.648-2.34 2.16-2.16 2.866-5.344 1.932-8.168l.476-.476.476.475c-.935 2.825-.23 6.01 1.932 8.17.32.32.675.612 1.117.917.09.062.186.126.285.19.408.254.778.45 1.14.603.032.015.063.03.092.04.42.17.846.296 1.33.4.125.026.25.05.374.07.392.066.783.103 1.166.112.055.004.11.006.164.006.17 0 .327-.014.482-.026l.096-.008.074-.004c.125-.006.25-.014.374-.03.358-.047.7-.115 1.028-.203.69-.185 1.23-.724 1.415-1.414.187-.69-.01-1.427-.517-1.932l-2.913-2.912.236-1.18 1.18-.235 2.912 2.913c.38.38.89.586 1.414.586.173 0 .347-.022.518-.068.69-.186 1.23-.726 1.414-1.417.734-2.754-.058-5.712-2.067-7.72-.336-.337-.714-.647-1.155-.95-.113-.076-.227-.143-.34-.206l-.06-.034c-.328-.195-.61-.342-.892-.466-.157-.068-.315-.127-.472-.185-.318-.114-.62-.203-.915-.272-.166-.038-.33-.074-.498-.103-.312-.052-.633-.083-.987-.097l-.072-.005c-.114-.008-.227-.014-.34-.014h-.057c-.106.003-.21.01-.31.017l-.07.007c-.304.02-.56.05-.803.092-.127.02-.262.046-.398.075-.27.06-.522.13-.787.22L23.078 18l.473-.475c.813.268 1.663.406 2.523.406 2.133 0 4.14-.83 5.647-2.337 2.01-2.01 2.802-4.968 2.067-7.72-.184-.693-.723-1.233-1.414-1.418-.17-.046-.345-.07-.518-.07-.524 0-1.034.207-1.414.587L27.53 9.885l-1.18-.235-.233-1.18 2.914-2.913c.505-.506.702-1.243.516-1.933-.186-.69-.726-1.23-1.418-1.413-.675-.18-1.372-.27-2.07-.27"/></g></symbol><symbol id="icon-arrow-tri" viewBox="0 0 412 260.2"><path fill="#fff" d="M357.1 0L412 55.1 206 260.2 0 55.1 54.9 0 206 150.4z"/></symbol><symbol id="icon-checkbox" viewBox="0 0 512 512"><path d="M389.814 253.305v173.05H50V86.536h316.81l-41.242 41.24H91.24v257.337h257.335v-90.75l41.24-41.06zm19.655-167.66L245.996 249.118 175.19 178.29l-52.507 52.518L245.998 354.16 462 138.143l-52.53-52.497z"/></symbol><symbol id="icon-close" viewBox="0 0 512 512"><path d="M462 256c0 113.77-92.23 206-206 206S50 369.77 50 256 142.23 50 256 50s206 92.23 206 206zm-40 0c0-91.755-74.258-166-166-166-91.755 0-166 74.26-166 166 0 91.755 74.258 166 166 166 91.755 0 166-74.26 166-166zm-96.67 106.49L258 295.166l-67.33 67.332-36.163-36.186 67.313-67.322-67.32-67.317 36.184-36.164 67.31 67.3 67.3-67.31 36.193 36.17-67.312 67.316 67.32 67.31-36.17 36.194z"/></symbol><symbol id="icon-connect" viewBox="0 0 512 512"><path d="M321.57 362.8l-63.498 63.5c-47.6 47.6-124.772 47.6-172.373 0-47.6-47.6-47.6-124.773 0-172.373l63.498-63.5 41.385 41.384-63.5 63.5c-24.703 24.704-24.702 64.9.002 89.604 24.703 24.704 64.9 24.705 89.604 0l63.498-63.498L321.57 362.8zm41.23-41.23l63.5-63.498c47.6-47.598 47.6-124.772 0-172.372-47.6-47.6-124.774-47.6-172.374 0l-63.498 63.5 41.384 41.383 63.5-63.5c24.703-24.703 64.9-24.702 89.603 0 24.704 24.705 24.704 64.9 0 89.605l-63.5 63.5 41.386 41.383z"/></symbol><symbol id="icon-dashboard" viewBox="0 0 36 36"><defs xmlns="http://www.w3.org/2000/svg"><path id="a" d="M0 0h36v36H0z"/></defs><clipPath xmlns="http://www.w3.org/2000/svg" xmlns:xlink="http://www.w3.org/1999/xlink" id="b"><use xlink:href="#a" overflow="visible"/></clipPath><path clip-path="url(#b)" fill="#fff" d="M9 18h3v3H9zM13 14h3v3h-3zM13 18h3v3h-3zM9 14h3v3H9z"/><defs xmlns="http://www.w3.org/2000/svg"><path id="c" d="M0 0h36v36H0z"/></defs><clipPath xmlns="http://www.w3.org/2000/svg" xmlns:xlink="http://www.w3.org/1999/xlink" id="d"><use xlink:href="#c" overflow="visible"/></clipPath><g xmlns="http://www.w3.org/2000/svg" xmlns:xlink="http://www.w3.org/1999/xlink" clip-path="url(#d)"><defs><path id="e" d="M0 0h36v36H0z"/></defs><clipPath id="f"><use xlink:href="#e" overflow="visible"/></clipPath><path clip-path="url(#f)" fill="#fff" d="M33.414 13.105L31 10.69V4c0-1.104-.896-2-2-2h-4c-.596 0-1.13.26-1.497.674l-.09-.088C23.04 2.21 22.53 2 22 2h-8.418c-.582.016-1.128.283-1.496.733L2.452 14.335C2.16 14.693 2 15.14 2 15.602V32c0 1.104.896 2 2 2h28c1.104 0 2-.896 2-2V14.52s-.08-.91-.586-1.415M23 19v13H4V15l8.76-10.708L23 14.532V19zm9 13h-8V15h8v17zm-8-18h-.47l-10-10H22l3 3V4h4v7l3 3h-8z"/></g></symbol><symbol id="icon-disconnect" viewBox="0 0 512 512"><path d="M301.1 392.786l-70.024 48.323c-52.488 36.22-124.406 23.037-160.63-29.452-36.225-52.492-23.038-124.406 29.45-160.63l70.024-48.323 31.494 45.636-70.02 48.323c-27.243 18.8-34.11 56.256-15.31 83.5 18.797 27.24 56.256 34.11 83.498 15.31l70.024-48.323 31.494 45.636zm91.313-90.966l48.745-69.73c36.54-52.27 23.787-124.262-28.485-160.803-52.27-36.54-124.267-23.786-160.805 28.485l-48.745 69.73 45.447 31.768 48.745-69.73c18.965-27.13 56.462-33.77 83.59-14.808 27.13 18.964 33.772 56.462 14.808 83.59l-48.744 69.73 45.443 31.768zm-41.63 88.76l-28.14 4.008 8.577 60.242 28.138-4.004-8.576-60.246zm43.16-67.29l-4.005 28.138 60.242 8.576 4.008-28.137-60.244-8.577zm9.668 100.83l20.093-20.1L380.67 361l-20.094 20.1 43.035 43.02z"/></symbol><symbol id="icon-downstream" viewBox="0 0 512 512"><path d="M438.28 279.407L255.997 462 73.72 279.407h83.826v-68.38h196.906v68.38h83.827zm-280.734-99.38h196.906v-56H157.546v56zm196.906-85V50H157.546v45.028h196.906z"/></symbol><symbol id="icon-email" viewBox="0 0 512 512"><path d="M170.544 239.052L50 146.454v213.142l120.544-120.544zm290.384-135.645H51.416L256.01 260.57l204.918-157.163zm-147.573 157.29L255.99 304.69l-57.453-44.135L50.5 408.593h410.75L313.356 260.696zm28.012-21.485L462 359.845V146.693l-120.633 92.52z"/></symbol><symbol id="icon-globe" viewBox="0 0 512 512"><path d="M462 256c0-115.604-93.762-206-206-206-111.458 0-206 89.45-206 206 0 117.234 95.125 206 206 206 111.564 0 206-89.594 206-206zm-303.473-75.583c-3.932 18.902-6.367 39.03-7.146 59.793H92.284c2.635-27.648 12.112-53.3 26.723-75.242 12.69 6.423 26.057 11.47 39.52 15.45zm-7.056 91.372c.9 20.947 3.49 41.222 7.6 60.218-13.783 4.044-26.99 9.04-39.778 15.46-14.774-22.038-24.356-47.847-27.01-75.68h59.19zm15.89 90.67c4.934 14.79 11.215 29.375 19.296 42.712-17.433-8.118-33.21-19.194-46.675-32.595 8.49-3.848 17.655-7.232 27.38-10.118zm104.43-43.302v-47.37h57.663c-.857 18.497-3.14 36.318-6.7 52.958-16.284-2.998-33.398-4.887-50.964-5.588zm42.49 36.118c-7.733 22.147-21.897 50.895-42.49 62.08V350.76c14.66.633 28.913 2.153 42.49 4.516zM271.79 240.21v-46.786c17.763-.71 35.06-2.634 51.507-5.69 3.383 16.53 5.504 34.19 6.242 52.477h-57.75zm0-78.39V92.54c21.247 11.54 35.647 41.664 43.356 64.61-13.837 2.45-28.384 4.025-43.357 4.67zm-31.58-68.997v68.975c-14.788-.66-29.156-2.227-42.83-4.65 7.67-22.83 21.908-52.58 42.83-64.325zm0 100.577v46.81h-57.225c.738-18.29 2.86-35.946 6.242-52.477 16.284 3.027 33.403 4.94 50.983 5.667zm-50.436 131.347c-3.563-16.64-5.845-34.46-6.7-52.958h57.137v47.39c-17.382.72-34.315 2.6-50.436 5.567zm50.436 26.036v66.29c-20.31-11.4-34.28-39.796-41.965-61.796 13.416-2.335 27.49-3.848 41.965-4.494zm104.956 11.675c9.588 2.844 18.63 6.176 27.02 9.956-13.314 13.288-28.898 24.3-46.115 32.418 8.026-13.32 14.21-27.733 19.096-42.374zm8.29-30.452c4.108-18.995 6.7-39.27 7.6-60.217h58.66c-2.644 27.747-12.177 53.482-26.876 75.477-12.813-6.387-25.836-11.286-39.385-15.26zm39.67-166.837c14.534 21.898 23.964 47.476 26.59 75.04h-58.57c-.78-20.763-3.216-40.89-7.147-59.792 13.406-3.963 26.635-8.96 39.127-15.25zm-20.544-25.18c-8.266 3.747-17.174 7.056-26.615 9.892-4.71-14.58-10.63-28.794-18.174-41.894 16.707 8.118 31.832 18.98 44.79 32zm-187.64-32.36c-7.712 13.323-13.653 27.606-18.385 42.25-9.578-2.877-18.61-6.24-26.98-10.057 13.113-13.14 28.436-24.072 45.365-32.194z"/></symbol><symbol id="icon-pencil" viewBox="0 0 512 512"><path d="M298.964 117.294L75.104 341.156 50.416 461.42l122.365-22.584 223.86-223.86-97.678-97.682zM100.317 366.18l198.785-198.783 12.303 12.303L112.62 378.482l-12.303-12.302zm47.178 47.468l-12.303-12.303 198.785-198.783 12.303 12.303-198.785 198.783zm314.922-264.445l-43.88 43.878-97.68-97.68 43.878-43.877 97.682 97.68z"/></symbol><symbol id="icon-projects" viewBox="0 0 36 36"><defs xmlns="http://www.w3.org/2000/svg"><path id="a" d="M0 0h36v36H0z"/></defs><clipPath xmlns="http://www.w3.org/2000/svg" xmlns:xlink="http://www.w3.org/1999/xlink" id="b"><use xlink:href="#a" overflow="visible"/></clipPath><path clip-path="url(#b)" fill="#fff" d="M14 25h8v1h-8zM29 10H7v19h22V10zm-1 18H8v-5h20v5zm0-6H8v-5h20v5zm0-6H8v-5h20v5zM14 19h8v1h-8zM14 13h8v1h-8z"/><defs xmlns="http://www.w3.org/2000/svg"><path id="c" d="M0 0h36v36H0z"/></defs><clipPath xmlns="http://www.w3.org/2000/svg" xmlns:xlink="http://www.w3.org/1999/xlink" id="d"><use xlink:href="#c" overflow="visible"/></clipPath><g xmlns="http://www.w3.org/2000/svg" xmlns:xlink="http://www.w3.org/1999/xlink" clip-path="url(#d)"><defs><path id="e" d="M0 0h36v36H0z"/></defs><clipPath id="f"><use xlink:href="#e" overflow="visible"/></clipPath><path clip-path="url(#f)" fill="#fff" d="M33.66 5.887l-2.01-3C31.28 2.333 30.658 2 29.99 2H6c-.67 0-1.294.334-1.665.89l-1.997 3c-.214.322-.327.69-.336 1.062-.004.184 0 25.048 0 25.048 0 1.104.894 2 1.998 2h28c1.104 0 2-.896 2-2V6.967c-.006-.378-.12-.754-.34-1.08M32 32H4V8h28v24zM4 7l2-3h23.99L32 7H4z"/></g></symbol><symbol id="icon-refresh" viewBox="0 0 512 512"><path d="M372.53 146.186C297.224 86.69 175.6 136.66 175.6 246.713c0 .02 0-.02 0 0h36.396L130.95 332.85 50 246.713h35.28c0-.01 0 .008 0 0 0-137.163 194.822-206.155 287.25-100.527zM139.47 365.813c75.305 59.495 196.93 9.526 196.93-100.526 0-.02 0 .02 0 0h-36.397l81.045-86.138L462 265.286h-35.28c0 .01 0-.01 0 0 0 137.162-194.823 206.155-287.25 100.526z"/></symbol><symbol id="icon-star-empty" viewBox="0 0 512 512"><path fill="#7e7e7e" d="M256 157.165l26.834 82.585h86.835l-70.253 51.04 26.835 82.587L256 322.337l-70.252 51.04 26.835-82.586-70.253-51.04h86.836L256 157.165zm0-97.083L207.37 209.75H50l127.315 92.5-48.63 149.668L256 359.418l127.315 92.5-48.63-149.668L462 209.75H304.63L256 60.082z"/></symbol><symbol id="icon-star-filled" viewBox="0 0 512 512"><path fill="#7e7e7e" d="M256 60.082l48.63 149.668H462l-127.314 92.5 48.63 149.668L256 359.418l-127.315 92.5 48.63-149.668L50 209.75h157.37z"/></symbol><symbol id="icon-support" viewBox="0 0 36 36"><defs xmlns="http://www.w3.org/2000/svg"><path id="a" d="M0 0h36v36H0z"/></defs><clipPath xmlns="http://www.w3.org/2000/svg" xmlns:xlink="http://www.w3.org/1999/xlink" id="b"><use xlink:href="#a" overflow="visible"/></clipPath><g xmlns="http://www.w3.org/2000/svg" xmlns:xlink="http://www.w3.org/1999/xlink" clip-path="url(#b)"><defs><path id="c" d="M0 0h36v36H0z"/></defs><clipPath id="d"><use xlink:href="#c" overflow="visible"/></clipPath><path clip-path="url(#d)" fill="#fff" d="M18 2C9.162 2 2 9.162 2 18s7.162 16 16 16 16-7.162 16-16S26.838 2 18 2m2.443 2.732c.978.178 1.936.456 2.86.85 3.21 1.373 5.736 3.898 7.11 7.11.397.924.676 1.884.855 2.867l-7.56.598c-.59-1.83-2.035-3.277-3.867-3.868l.603-7.558zM24 17.916l-.003.007v-.015l.004.008zM17.918 12l.007.004h-.015l.007-.004zm-12.33.692c1.375-3.21 3.9-5.736 7.113-7.11.924-.394 1.88-.67 2.86-.85l.6 7.56c-1.832.59-3.277 2.036-3.868 3.866l-7.56-.6c.18-.98.458-1.94.855-2.866m6.418 5.24v.01L12 17.94l.005-.006zm3.555 13.333c-.98-.178-1.942-.453-2.862-.848-3.214-1.375-5.742-3.903-7.117-7.12-.393-.923-.67-1.88-.848-2.853l7.56-.602c.59 1.83 2.036 3.276 3.867 3.867l-.6 7.555zM17.94 24l-.007-.004h.01L17.94 24zM13 18c0-2.757 2.244-5 5.002-5 2.757 0 5 2.243 5 5s-2.243 5-5 5c-2.758 0-5-2.243-5-5m17.42 5.298c-1.376 3.217-3.903 5.745-7.116 7.12-.92.394-1.884.67-2.863.847l-.6-7.555c1.832-.59 3.277-2.037 3.867-3.868l7.56.6c-.18.978-.456 1.935-.85 2.856"/></g></symbol><symbol id="icon-tick" viewBox="0 0 512 512"><path fill="#66BB4E" d="M256 50C142.23 50 50 142.23 50 256s92.23 206 206 206 206-92.23 206-206S369.77 50 256 50zm-35.047 316.96l-97.326-97.353 41.44-41.448 55.884 55.898L349.97 155.04l41.458 41.43-170.475 170.49z"/></symbol><symbol id="icon-trash" viewBox="0 0 512 512"><path d="M210.333 194.45c0-8.29-6.716-15.012-15-15.012s-15 6.722-15 15.012v182.153c0 8.29 6.716 15.013 15 15.013s15-6.722 15-15.013V194.45zm60.667 0c0-8.29-6.716-15.012-15-15.012s-15 6.722-15 15.012v182.153c0 8.29 6.716 15.013 15 15.013s15-6.722 15-15.013V194.45zm60.667 0c0-8.29-6.716-15.012-15-15.012s-15 6.722-15 15.012v182.153c0 8.29 6.716 15.013 15 15.013s15-6.722 15-15.013V194.45zm39.667 230.526H140.666V146.08h-35V460h300.668V146.08h-35v278.896zm-41.71-348.954c-15.463 0-28-12.546-28-28.022h-91.25c0 15.477-12.534 28.022-28 28.022H87.44v40.032h337.125V76.022h-94.938z"/></symbol><symbol id="icon-upstream" viewBox="0 0 512 512"><path d="M73.72 232.593L256.003 50 438.28 232.593h-83.826v68.38H157.548v-68.38H73.72zm280.734 99.38H157.548v56h196.906v-56zm-196.906 85V462h196.906v-45.028H157.548z"/></symbol><symbol id="icon-users" viewBox="0 0 36 36"><defs xmlns="http://www.w3.org/2000/svg"><path id="a" d="M0 0h36v36H0z"/></defs><clipPath xmlns="http://www.w3.org/2000/svg" xmlns:xlink="http://www.w3.org/1999/xlink" id="b"><use xlink:href="#a" overflow="visible"/></clipPath><g xmlns="http://www.w3.org/2000/svg" xmlns:xlink="http://www.w3.org/1999/xlink" clip-path="url(#b)"><defs><path id="c" d="M0 0h36v36H0z"/></defs><clipPath id="d"><use xlink:href="#c" overflow="visible"/></clipPath><path clip-path="url(#d)" fill="#fff" d="M30 7H6V4h24v3zm1 5H5V8h26v4zm1 1v19h-8v-3h2v-1h-5v1h2v3H13v-3h2v-1h-5v1h2v3H4V13h28M9.5 19.168c1.034 0 1.87-.838 1.87-1.872 0-1.03-.836-1.87-1.87-1.87-1.032 0-1.87.84-1.87 1.87 0 1.034.838 1.872 1.87 1.872M17 18h12v-1H17v1zm0 3h12v-1H17v1zM7 25h5v-2.454c0-1.394-1.013-2.524-2.5-2.524S7 21.152 7 22.546V25m10-1h12v-1H17v1zM30 2H6c-1.104 0-2 .896-2 2v2.268C3.402 6.613 3 7.26 3 8v3.268c-.598.345-1 .992-1 1.732v19c0 1.104.896 2 2 2h28c1.104 0 2-.896 2-2V13c0-.74-.402-1.387-1-1.732V8c0-.74-.402-1.387-1-1.732V4c0-1.104-.896-2-2-2"/></g></symbol><symbol id="logo-bitbucket" viewBox="0 0 821.403 210.419"><g xmlns="http://www.w3.org/2000/svg"><g fill="#036"><path d="M182.723 1.757c-.158-.49-.607-.82-1.122-.82h-10.968c-.515 0-.968.33-1.12.82L155.67 45.65c-.117.357-.05.746.173 1.046.214.306.57.484.95.484h7.545c.52 0 .98-.34 1.127-.84l9.53-32.283s.252-.806 1.113-.806c.882 0 1.09.842 1.09.842l4.425 15.3h-5.944c-.523 0-.988.358-1.13.862l-1.7 6.055c-.098.356-.026.74.193 1.03.224.295.57.47.937.47h10.116l2.662 8.545c.152.49.613.826 1.123.826h7.558c.378 0 .73-.177.95-.483.223-.3.285-.688.172-1.046L182.723 1.758zM215.622 40.416c-.05-.326-.234-.622-.51-.804-.275-.184-.61-.24-.938-.163-1.224.303-2.4.472-3.307.472-1.72 0-2.484-.744-2.484-2.415v-16.82h6.745c.647 0 1.178-.52 1.178-1.17V14.27c0-.646-.53-1.176-1.178-1.176h-6.745v-8.1c0-.335-.146-.662-.402-.88-.257-.225-.6-.322-.935-.28l-6.942.968c-.582.08-1.016.58-1.016 1.16v7.132h-3.775c-.653 0-1.18.53-1.18 1.177v5.247c0 .65.527 1.17 1.18 1.17h3.775v17.907c0 6.146 3.233 9.266 9.608 9.266 1.815 0 4.892-.418 6.912-1.116.53-.19.86-.73.775-1.29l-.76-5.038zM228.475.005h-6.94c-.653 0-1.178.525-1.178 1.17v44.828c0 .646.525 1.177 1.177 1.177h6.94c.65 0 1.174-.53 1.174-1.177V1.18c0-.65-.524-1.175-1.173-1.175zM246.33 12.416c-3.517 0-7.793.556-10.896 1.412-.58.163-.948.73-.846 1.32l.81 5.04c.052.317.23.596.49.775.26.183.582.255.897.194 2.885-.566 5.866-.873 8.39-.873 5.015 0 5.81 1.055 5.81 4.45v2.962h-7.442c-7.11 0-10.147 2.94-10.147 9.812 0 6.58 3.334 10.352 9.133 10.352 3.354 0 6.718-.933 9.54-2.636l.296 1.09c.143.51.6.867 1.137.867h5.607c.646 0 1.173-.53 1.173-1.176v-21.13c-.002-9.08-3.783-12.458-13.952-12.458zm4.655 22.27v4.086c-1.148.612-3.233 1.49-5.74 1.49-2.167 0-2.825-.66-2.825-2.826 0-2.1.403-2.75 2.958-2.75h5.607zM277.68 26.083c-4.306-1.11-4.306-1.155-4.306-3.52 0-1.587.153-2.353 3.704-2.353 2.434 0 6.02.43 8.325.82.316.057.64-.02.896-.212.26-.194.427-.48.467-.8l.653-5.29c.07-.597-.315-1.158-.902-1.29-2.66-.623-6.37-1.025-9.44-1.025-10.677 0-12.863 4.03-12.863 10.08 0 6.653 1.24 8.886 9.418 10.883 5.388 1.295 5.388 2.257 5.388 3.858 0 2.095-.177 2.823-3.71 2.823-2.84 0-6.125-.44-9.016-1.212-.316-.08-.653-.03-.928.143-.28.173-.468.46-.53.778l-.917 5.02c-.107.58.233 1.147.794 1.332 3.15 1.025 7.68 1.738 11.004 1.738 10.34 0 12.456-4.327 12.456-10.826 0-7.173-1.27-8.503-10.494-10.947zM304.51 26.083c-4.31-1.11-4.31-1.155-4.31-3.52 0-1.587.157-2.353 3.704-2.353 2.436 0 6.02.43 8.323.82.32.057.647-.02.903-.212.26-.19.428-.48.463-.8l.658-5.29c.078-.597-.315-1.158-.896-1.29-2.672-.623-6.376-1.025-9.45-1.025-10.673 0-12.866 4.03-12.866 10.08 0 6.653 1.24 8.886 9.42 10.883 5.387 1.295 5.387 2.257 5.387 3.858 0 2.095-.178 2.823-3.7 2.823-2.844 0-6.13-.44-9.022-1.212-.315-.08-.652-.035-.933.143-.275.173-.47.46-.525.778l-.923 5.02c-.1.58.235 1.147.796 1.332 3.157 1.025 7.682 1.738 11.01 1.738 10.336 0 12.463-4.327 12.463-10.826 0-7.173-1.28-8.503-10.5-10.947zM326.978 0h-6.943c-.646 0-1.176.53-1.176 1.175v6.163c0 .652.53 1.178 1.175 1.178h6.943c.647 0 1.178-.526 1.178-1.178V1.175c0-.645-.53-1.175-1.178-1.175zM326.978 13.093h-6.943c-.646 0-1.176.53-1.176 1.177v31.733c0 .646.53 1.177 1.175 1.177h6.943c.647 0 1.178-.53 1.178-1.177V14.27c0-.646-.53-1.177-1.178-1.177zM345.004 12.416c-3.517 0-7.792.556-10.896 1.412-.577.163-.943.73-.846 1.32l.81 5.04c.057.316.23.596.49.775.26.183.584.255.896.194 2.886-.566 5.872-.873 8.39-.873 5.016 0 5.814 1.055 5.814 4.45v2.962h-7.44c-7.11 0-10.153 2.94-10.153 9.812 0 6.58 3.332 10.352 9.132 10.352 3.353 0 6.718-.933 9.542-2.636l.3 1.09c.138.51.602.867 1.133.867h5.606c.647 0 1.178-.53 1.178-1.176v-21.13c0-9.08-3.782-12.458-13.956-12.458zm4.66 22.268v4.088c-1.15.61-3.236 1.49-5.743 1.49-2.162 0-2.824-.66-2.824-2.826 0-2.1.408-2.752 2.962-2.752h5.605zM384.64 12.416c-3.677 0-8.688 1.27-12.93 3.255l-.506-1.73c-.143-.5-.605-.847-1.127-.847h-5.144c-.65 0-1.177.53-1.177 1.177v31.733c0 .646.528 1.177 1.177 1.177h6.946c.646 0 1.174-.53 1.174-1.177V24.026c2.503-1.27 6.017-2.59 8.12-2.59 1.564 0 2.145.58 2.145 2.146v22.42c0 .647.53 1.178 1.18 1.178h6.938c.654 0 1.178-.53 1.178-1.177V22.696c0-6.82-2.676-10.28-7.975-10.28z"/></g><path fill="#036" d="M404.803 110.72c-9.223 0-18.545 2.275-24.86 4.64V80.804c0-1.738-1.413-3.146-3.15-3.146h-18.627c-1.736 0-3.13 1.408-3.13 3.146v119.01c0 1.51 1.086 2.826 2.577 3.092 11.492 2.096 25.048 2.83 33.187 2.83 34.984 0 42.14-14.87 42.14-37.21v-26.05c-.003-21.082-9.47-31.755-28.137-31.755zm-12.925 73.382c-4.717 0-8.624-.182-11.935-.57v-46.56c5.13-2.3 12.346-4.616 18.132-4.616 7.058 0 9.938 2.766 9.938 9.568v27.313c0 9.856-2.492 14.865-16.135 14.865zM518.626 112.54h-18.604c-1.736 0-3.146 1.414-3.146 3.128v58.95c-6.71 3.4-16.155 6.93-21.777 6.93-4.194 0-5.743-1.55-5.743-5.747V115.67c0-1.714-1.432-3.127-3.19-3.127h-18.583c-1.762 0-3.154 1.414-3.154 3.128v62.51c0 18.282 7.195 27.558 21.37 27.558 9.87 0 23.307-3.392 34.65-8.726l1.373 4.645c.41 1.344 1.617 2.265 3.028 2.265l13.776-.004c1.74 0 3.153-1.412 3.153-3.147v-85.1c0-1.716-1.412-3.13-3.154-3.13zM593.573 184.654c-.12-.877-.633-1.647-1.33-2.147-.732-.49-1.636-.653-2.493-.46-5.337 1.216-10.94 1.874-16.195 1.874-11.798 0-15.213-3.004-15.213-13.393v-24.6c0-10.397 3.415-13.402 15.213-13.402 2.806 0 9.794.403 16.195 1.87.857.195 1.76.033 2.493-.472.72-.484 1.227-1.26 1.33-2.142l2.212-14.726c.22-1.552-.694-3.03-2.212-3.474-7.175-2.112-15.583-2.86-20.55-2.86-28.13 0-39.603 10.245-39.603 35.39v24.232c0 25.137 11.472 35.392 39.604 35.392 6.826 0 14.7-1.096 20.55-2.855 1.517-.45 2.43-1.94 2.21-3.484l-2.21-14.742zM721.818 110.72c-24.967 0-38.15 12.434-38.15 35.94v23.5c0 24.265 12.365 35.574 38.89 35.574 10.792 0 22.304-1.892 31.566-5.17 1.472-.53 2.353-2.076 2.045-3.622l-2.762-13.315c-.184-.855-.716-1.61-1.452-2.05-.755-.46-1.655-.58-2.49-.337-8.568 2.414-16.688 3.597-24.908 3.597-13.556 0-15.97-4.393-15.97-13.587v-3.217H754.8c1.755 0 3.147-1.393 3.147-3.156v-17.13c0-25.268-11.47-37.027-36.13-37.027zm-13.23 36.773v-3.02c0-8.77 4.278-12.856 13.418-12.856 10.1 0 12.117 4.928 12.117 12.857v3.02h-25.536zM274.068 112.5h-18.605c-1.74 0-3.154 1.418-3.154 3.147v85.085c0 1.745 1.414 3.152 3.153 3.152h18.605c1.78 0 3.168-1.407 3.168-3.152v-85.085c0-1.73-1.388-3.147-3.168-3.147zM274.068 77.647h-18.605c-1.74 0-3.154 1.428-3.154 3.157v16.03c0 1.762 1.414 3.158 3.153 3.158h18.605c1.78 0 3.168-1.396 3.168-3.16V80.805c0-1.73-1.388-3.157-3.168-3.157zM227.204 139.007c7.71-4.242 11.06-10.188 11.06-19.33v-12.514c0-18.323-10.996-27.217-33.573-27.217h-45.938c-1.72 0-3.133 1.408-3.133 3.145v117.643c0 1.745 1.41 3.152 3.132 3.152h49.213c21.917 0 34.493-10.643 34.493-29.21V161.75c0-11.077-5.624-19.35-15.254-22.745zm-45.943-37.43h20.69c9.367 0 10.677 4.088 10.677 8.464v10.722c0 6.972-3.255 9.95-10.86 9.95h-4.474c-1.762 0-3.174 1.417-3.174 3.157v14.78c0 1.75 1.41 3.16 3.173 3.16h8.093c8.12 0 11.413 3.14 11.413 10.85v9.097c0 7.843-3.376 10.488-13.417 10.488H181.26v-80.667zM343.975 185.8c-.123-.887-.612-1.667-1.347-2.167-.74-.49-1.66-.652-2.52-.433-3.29.82-6.44 1.27-8.87 1.27-4.603 0-6.647-2.004-6.647-6.477v-45.085h18.075c1.74 0 3.148-1.408 3.148-3.15v-14.07c0-1.734-1.408-3.147-3.148-3.147H324.59V90.865c0-.917-.41-1.78-1.082-2.372-.694-.606-1.617-.88-2.52-.75l-18.605 2.59c-1.554.226-2.713 1.557-2.713 3.13v19.078h-10.145c-1.737 0-3.152 1.413-3.152 3.147v14.07c0 1.742 1.415 3.15 3.152 3.15h10.145v48.007c0 16.472 8.646 24.835 25.738 24.835 4.868 0 13.128-1.128 18.526-3 1.45-.5 2.31-1.938 2.084-3.454l-2.043-13.497zM819.327 185.795c-.122-.886-.632-1.666-1.373-2.168-.733-.487-1.657-.652-2.493-.427-3.313.816-6.44 1.27-8.892 1.27-4.582 0-6.665-2.01-6.665-6.482v-45.085H818c1.756 0 3.143-1.417 3.143-3.146v-14.07c0-1.733-1.387-3.147-3.144-3.147h-18.097V90.86c0-.918-.368-1.78-1.066-2.37-.695-.604-1.613-.878-2.514-.746l-18.606 2.59c-1.553.22-2.722 1.55-2.722 3.113v19.093h-10.138c-1.722 0-3.147 1.414-3.147 3.148v14.07c0 1.728 1.426 3.145 3.147 3.145h10.138v48.013c0 16.466 8.67 24.83 25.746 24.83 4.888 0 13.126-1.127 18.525-2.998 1.433-.5 2.326-1.934 2.104-3.454l-2.043-13.5zM680.778 198.622l-24.88-41.074 24-40.45c.58-.974.59-2.183.03-3.165-.562-.984-1.606-1.592-2.738-1.592h-20.553c-1.126 0-2.166.603-2.73 1.577l-22.83 39.583V80.822c0-1.74-1.41-3.15-3.15-3.15h-18.605c-1.74 0-3.15 1.41-3.15 3.15v119.91c0 1.74 1.41 3.15 3.15 3.15h18.605c1.74 0 3.15-1.41 3.15-3.15V161.49l24.295 40.653c.568.95 1.596 1.535 2.704 1.535H678.27c1.74 0 3.15-1.412 3.15-3.15-.002-.717-.24-1.377-.642-1.906z"/></g><g xmlns="http://www.w3.org/2000/svg"><path fill="#036" d="M61.172 69.194v.002-.002C27.497 69.194 0 78.248 0 89.488c0 2.96 7.343 45.415 10.256 62.25 1.306 7.55 20.818 18.62 50.9 18.62l.03-.09v.09c30.08 0 49.593-11.07 50.9-18.62 2.912-16.836 10.255-59.29 10.255-62.25.003-11.24-27.494-20.294-61.168-20.294zm0 87.527c-10.74 0-19.446-8.706-19.446-19.444 0-10.74 8.706-19.445 19.445-19.445s19.446 8.706 19.446 19.446c0 10.738-8.705 19.445-19.445 19.445zm-.01-60.96c-21.637-.034-39.17-3.793-39.163-8.397s17.553-8.307 39.188-8.272c21.636.035 39.17 3.794 39.162 8.4-.008 4.604-17.554 8.305-39.19 8.27zM105.137 168.613c-.93 0-1.675.658-1.675.658s-15.064 11.93-42.29 11.93c-27.228 0-42.292-11.93-42.292-11.93s-.746-.657-1.675-.657c-1.11 0-2.164.746-2.164 2.393 0 .174.018.348.05.518 2.338 12.514 4.046 21.393 4.346 22.744 2.04 9.205 20.048 16.15 41.733 16.152 21.687 0 39.693-6.947 41.734-16.152.3-1.352 2.008-10.23 4.346-22.744.032-.17.05-.344.05-.518 0-1.647-1.052-2.393-2.163-2.393z"/><circle fill="#036" cx="61.152" cy="137.27" r="9.745"/></g></symbol><symbol id="logo-codebase" viewBox="0 0 370.422 75.203"><defs xmlns="http://www.w3.org/2000/svg"><path id="a" d="M326.61 43.484h33.702c-.062-4.47-1.547-8.53-4.453-12.188-2.907-3.656-7.048-5.484-12.423-5.484-5.062 0-9.086 1.812-12.07 5.438-2.984 3.625-4.57 7.703-4.758 12.234zm-5.344 2.297c0-6.78 2.11-12.522 6.328-17.226 4.22-4.703 9.53-7.055 15.938-7.055 6.78 0 12.125 2.335 16.03 7.007 3.907 4.672 5.86 10.54 5.86 17.602v1.31H326.61c.25 5.25 2.008 9.634 5.273 13.15 3.266 3.515 7.555 5.272 12.867 5.272 6.156 0 11.22-2.14 15.188-6.422l2.578 3.28c-4.812 5-10.86 7.5-18.14 7.5-6.782 0-12.33-2.272-16.642-6.82s-6.468-10.41-6.468-17.6zm-226.907.025c0 3.39.96 6.125 2.882 8.203 1.922 2.078 4.352 3.117 7.29 3.117 1.593 0 3.24-.398 4.944-1.195 1.703-.797 3.023-1.805 3.96-3.023V38.703c-.968-1.22-2.296-2.21-3.983-2.977-1.688-.766-3.328-1.148-4.922-1.148-3 0-5.444 1.023-7.335 3.07-1.89 2.047-2.836 4.766-2.836 8.157zm186.39 16.992l2.953-3.656c1.594 1.97 3.703 3.595 6.328 4.876 2.626 1.28 5.517 1.922 8.673 1.922 3.78 0 6.79-.875 9.023-2.625 2.234-1.75 3.352-4 3.352-6.75 0-2.313-1.008-4.14-3.023-5.484-2.016-1.345-4.445-2.353-7.29-3.024-2.843-.672-5.71-1.406-8.6-2.203-2.892-.797-5.345-2.14-7.36-4.03-2.016-1.892-3.023-4.368-3.023-7.43 0-3.657 1.492-6.72 4.477-9.188 2.983-2.47 7.007-3.703 12.07-3.703 6.968 0 12.5 2.28 16.593 6.844l-2.766 3.516c-3-4.094-7.61-6.14-13.828-6.14-3.532 0-6.337.804-8.415 2.413-2.078 1.61-3.117 3.633-3.117 6.07 0 2.125 1.008 3.79 3.023 4.992 2.017 1.203 4.446 2.14 7.29 2.812 2.844.67 5.688 1.42 8.53 2.25 2.845.827 5.274 2.265 7.29 4.31 2.016 2.048 3.023 4.712 3.023 7.993 0 3.97-1.5 7.234-4.5 9.797-3 2.563-7.28 3.844-12.844 3.844-7.563 0-13.516-2.47-17.86-7.407zM149.078 40.625h19.078c-.25-1.906-1.14-3.586-2.672-5.04-1.53-1.452-3.844-2.18-6.938-2.18-2.938 0-5.172.712-6.703 2.134-1.53 1.42-2.452 3.116-2.765 5.085zm93.453 14.18c0 3.328 1.173 6.07 3.517 8.227s5.406 3.234 9.188 3.234c6.094 0 10.766-2.125 14.016-6.375V49.72c-3.25-4.282-7.92-6.423-14.015-6.423-3.78 0-6.844 1.086-9.188 3.258-2.344 2.172-3.516 4.922-3.516 8.25zM12.15 28.273c4.766-4.516 10.805-6.773 18.117-6.773 4.594 0 8.508.836 11.742 2.508 3.234 1.672 5.648 3.695 7.242 6.07l-9.563 8.906c-1.97-2.938-4.89-4.406-8.766-4.406-3.124 0-5.71 1.008-7.757 3.023-2.047 2.017-3.07 4.75-3.07 8.204s1.023 6.203 3.07 8.25c2.047 2.047 4.633 3.07 7.758 3.07 3.72 0 6.642-1.5 8.767-4.5l9.562 9c-1.595 2.375-4.01 4.398-7.243 6.07-3.234 1.672-7.148 2.508-11.742 2.508-7.28 0-13.312-2.273-18.094-6.82S5 52.977 5 45.805s2.383-13.016 7.148-17.532zm225.133 26.46c0-4.812 1.61-8.577 4.83-11.296 3.218-2.72 7.015-4.078 11.39-4.078 6.53 0 11.78 2.202 15.75 6.608v-9.375c0-3.313-1.172-5.922-3.516-7.828-2.344-1.906-5.312-2.86-8.906-2.86-5.75 0-10.61 2.282-14.578 6.845l-2.766-3.47c4.812-5.187 10.766-7.78 17.86-7.78 5 0 9.06 1.25 12.187 3.75 3.126 2.5 4.69 6.22 4.69 11.156V69.03h-4.97v-5.483c-4.03 4.406-9.28 6.625-15.75 6.656-4.28 0-8.055-1.398-11.32-4.195-3.266-2.797-4.9-6.555-4.9-11.274zM139.9 28.51c4.61-4.672 10.492-7.008 17.648-7.008 6.97 0 12.664 2.352 17.086 7.055 4.422 4.703 6.633 10.96 6.633 18.773v3.375h-33c.563 2.25 1.836 4.078 3.82 5.484 1.984 1.406 4.586 2.11 7.805 2.11 1.78 0 3.79-.368 6.023-1.103 2.234-.734 3.992-1.68 5.273-2.836l6.47 9.703c-2.25 1.97-5.118 3.485-8.603 4.548-3.484 1.063-7.086 1.594-10.805 1.594-7.28 0-13.312-2.227-18.094-6.68-4.78-4.453-7.172-10.367-7.172-17.742.002-6.843 2.307-12.6 6.916-17.272zm61.39 34.758c2.83 1.594 5.806 2.39 8.93 2.39 5.063 0 9.032-1.85 11.907-5.554 2.875-3.703 4.312-8.445 4.312-14.227 0-5.813-1.438-10.578-4.312-14.297C219.25 27.858 215.28 26 210.22 26c-3.063 0-6.024.836-8.884 2.508-2.86 1.672-4.992 3.664-6.398 5.977v22.922c1.406 2.312 3.523 4.265 6.35 5.86zM85.032 28.062c3.845-4.375 8.735-6.562 14.673-6.562 5.625 0 10.203 2.22 13.734 6.656V5h14.72v64.03h-14.72v-5.39c-3.78 4.344-8.36 6.53-13.734 6.562-5.938 0-10.828-2.164-14.672-6.492-3.843-4.328-5.765-10.305-5.765-17.93 0-7.436 1.922-13.342 5.766-17.718zm104.94 40.97V5h4.968v25.172c4.094-5.75 9.47-8.64 16.125-8.672 6.22 0 11.234 2.227 15.047 6.68 3.812 4.453 5.72 10.36 5.72 17.72s-1.907 13.25-5.72 17.67c-3.812 4.423-8.828 6.634-15.047 6.634-3.312 0-6.39-.805-9.234-2.414-2.845-1.61-5.142-3.664-6.892-6.164v7.406h-4.97z"/></defs><clipPath xmlns="http://www.w3.org/2000/svg" xmlns:xlink="http://www.w3.org/1999/xlink" id="b"><use xlink:href="#a" overflow="visible"/></clipPath><path clip-path="url(#b)" fill-rule="evenodd" clip-rule="evenodd" d="M0 0h370.422v75.203H0z"/><defs xmlns="http://www.w3.org/2000/svg"><path id="c" d="M67.02 61.46l-4.1 4.33-19.86-20.203v-.767l19.86-20.29 4.075 4.305 4.402-4.304L91.43 44.82v.766L71.398 65.79l-4.377-4.33zm.294-25.744l-9.594 9.53 9.69 9.37 9.187-9.37-9.283-9.53z"/></defs><clipPath xmlns="http://www.w3.org/2000/svg" xmlns:xlink="http://www.w3.org/1999/xlink" id="d"><use xlink:href="#c" overflow="visible"/></clipPath><path clip-path="url(#d)" fill-rule="evenodd" clip-rule="evenodd" fill="#fff" d="M38.06 19.53h58.37v51.26H38.06z"/><defs xmlns="http://www.w3.org/2000/svg"><path id="e" d="M63.02 61.46l-4.1 4.33-19.86-20.203v-.767l19.86-20.29 4.075 4.305 4.402-4.304L87.43 44.82v.766L67.398 65.79l-4.377-4.33zm.294-25.744l-9.594 9.53 9.69 9.37 9.187-9.37-9.283-9.53z"/></defs><clipPath xmlns="http://www.w3.org/2000/svg" xmlns:xlink="http://www.w3.org/1999/xlink" id="f"><use xlink:href="#e" overflow="visible"/></clipPath><path clip-path="url(#f)" fill-rule="evenodd" clip-rule="evenodd" fill="#E22C2C" d="M34.06 19.53h58.37v51.26H34.06z"/></symbol><symbol id="logo-github" viewBox="0 0 480.244 129.875"><path fill="#100E0F" d="M92.497 55.587H52.14c-1.04 0-1.885.845-1.885 1.887v19.73c0 1.04.845 1.89 1.886 1.89h15.744v24.513s-3.535 1.205-13.308 1.205c-11.53 0-27.637-4.213-27.637-39.63 0-35.426 16.77-40.087 32.517-40.087 13.63 0 19.502 2.4 23.238 3.556 1.174.36 2.26-.81 2.26-1.85l4.502-19.064c0-.488-.165-1.075-.72-1.473C87.218 5.18 77.96 0 54.576 0 27.634 0 0 11.462 0 66.562c0 55.102 31.64 63.312 58.302 63.312 22.076 0 35.47-9.434 35.47-9.434.55-.305.61-1.076.61-1.43V57.474c0-1.04-.844-1.887-1.885-1.887zM300.475 6.602c0-1.05-.832-1.897-1.873-1.897H275.88c-1.04 0-1.883.847-1.883 1.897l.006 43.913h-35.42V6.602c0-1.05-.835-1.897-1.874-1.897h-22.723c-1.034 0-1.877.847-1.877 1.897v118.903c0 1.05.843 1.902 1.877 1.902h22.722c1.038 0 1.874-.854 1.874-1.902v-50.86h35.42l-.063 50.86c0 1.05.844 1.902 1.883 1.902H298.6c1.04 0 1.873-.854 1.875-1.902V6.602z"/><g xmlns="http://www.w3.org/2000/svg" fill="#100E0F"><path d="M135.376 22.205c0-8.182-6.56-14.793-14.653-14.793-8.085 0-14.65 6.612-14.65 14.793 0 8.174 6.565 14.804 14.65 14.804 8.093-.002 14.653-6.632 14.653-14.805zM133.75 100.423V45.537c0-1.042-.84-1.894-1.88-1.894h-22.65c-1.04 0-1.97 1.072-1.97 2.114v78.635c0 2.31 1.44 2.998 3.305 2.998h20.408c2.24 0 2.788-1.1 2.788-3.035v-23.932z"/></g><path fill="#100E0F" d="M386.832 43.822h-22.55c-1.033 0-1.875.853-1.875 1.9v58.303s-5.73 4.19-13.86 4.19c-8.13 0-10.287-3.688-10.287-11.65V45.724c0-1.05-.84-1.9-1.875-1.9H313.5c-1.033 0-1.88.852-1.88 1.9v54.692c0 23.646 13.18 29.432 31.31 29.432 14.873 0 26.865-8.217 26.865-8.217s.57 4.33.83 4.844c.258.512.93 1.03 1.658 1.03l14.56-.065c1.032 0 1.878-.855 1.878-1.9l-.006-79.816c0-1.05-.843-1.902-1.882-1.902zM448.46 41.15c-12.806 0-21.517 5.715-21.517 5.715V6.602c0-1.05-.84-1.897-1.875-1.897H402.28c-1.035 0-1.877.847-1.877 1.897v118.903c0 1.05.842 1.902 1.88 1.902h15.81c.713 0 1.252-.367 1.65-1.01.393-.64.96-5.482.96-5.482s9.317 8.83 26.957 8.83c20.708 0 32.584-10.504 32.584-47.154 0-36.65-18.967-41.44-31.783-41.44zm-8.893 66.994c-7.82-.238-13.126-3.787-13.126-3.787V66.703s5.234-3.208 11.655-3.78c8.12-.728 15.944 1.725 15.944 21.095 0 20.425-3.53 24.456-14.473 24.126zM199.058 43.632h-17.045l-.025-22.518c0-.853-.44-1.278-1.425-1.278h-23.228c-.903 0-1.388.397-1.388 1.265v23.27s-11.64 2.81-12.428 3.038c-.784.228-1.36.95-1.36 1.812v14.623c0 1.052.84 1.9 1.878 1.9h11.91v35.18c0 26.128 18.327 28.694 30.694 28.694 5.65 0 12.41-1.814 13.527-2.227.674-.248 1.066-.947 1.066-1.705l.02-16.086c0-1.05-.887-1.9-1.885-1.9-.992 0-3.533.405-6.15.405-8.37 0-11.208-3.893-11.208-8.932v-33.43h17.045c1.04 0 1.88-.85 1.88-1.9V45.526c0-1.05-.84-1.895-1.88-1.895z"/></symbol><symbol id="logo" viewBox="0 0 288.5 92.828"><defs xmlns="http://www.w3.org/2000/svg"><path id="a" d="M10.766 29.062C14.61 24.687 19.5 22.5 25.438 22.5c5.625 0 10.203 2.22 13.734 6.656V6h14.72v64.03H39.17v-5.39c-3.78 4.344-8.36 6.53-13.734 6.562-5.938 0-10.828-2.164-14.672-6.492C6.922 60.383 5 54.406 5 46.78c0-7.436 1.922-13.342 5.766-17.718zm236.03-6.39l10.595 29.39 10.454-29.39H283.5l-20.953 52.97c-1.72 4.53-4.18 7.663-7.383 9.397-3.203 1.733-7.273 2.663-12.21 2.788-2.563 0-4.673-.25-6.33-.75l2.11-13.172c1.03.562 2.25.86 3.656.89 3.47 0 5.578-.858 6.328-2.577l1.078-2.532-4.882-12.397c.056-.504.085-1.013.085-1.526 0-4.16-1.842-7.928-4.764-10.35L231.28 22.67h15.517zM72.813 40.625H91.89c-.25-1.906-1.14-3.586-2.672-5.04-1.53-1.452-3.844-2.18-6.938-2.18-2.938 0-5.172.712-6.703 2.134-1.53 1.42-2.452 3.116-2.765 5.085zM161.844 5h14.766v39.905c-2.674 3.066-4.61 7.158-4.61 11.39 0 4.224 1.597 8.06 4.61 10.665v2.072h-14.767V5zM20.094 45.805c0 3.39.96 6.125 2.883 8.203 1.922 2.078 4.352 3.117 7.29 3.117 1.593 0 3.24-.398 4.944-1.195 1.704-.797 3.024-1.805 3.962-3.023V38.703c-.97-1.22-2.297-2.21-3.984-2.977-1.688-.766-3.328-1.148-4.922-1.148-3 0-5.445 1.023-7.336 3.07-1.89 2.047-2.836 4.766-2.836 8.157zm103.984 7.1c.906 1.22 2.203 2.228 3.89 3.024 1.69.796 3.33 1.194 4.923 1.194 2.94 0 5.376-1.023 7.313-3.07 1.938-2.047 2.906-4.805 2.906-8.273 0-3.405-.962-6.124-2.884-8.155-1.922-2.03-4.367-3.047-7.336-3.047-1.594 0-3.234.398-4.922 1.195-1.688.797-2.984 1.805-3.89 3.023v14.11zm-66.36-7.124c0-6.843 2.306-12.6 6.915-17.272 4.61-4.672 10.492-7.008 17.648-7.008 6.97 0 12.665 2.352 17.087 7.055C103.79 33.258 106 39.515 106 47.328v3.375H73c.562 2.25 1.836 4.078 3.82 5.484 1.984 1.406 4.586 2.11 7.805 2.11 1.78 0 3.79-.368 6.023-1.103 2.234-.734 3.992-1.68 5.273-2.836l6.47 9.703c-2.25 1.97-5.117 3.485-8.602 4.548s-7.086 1.594-10.805 1.594c-7.28 0-13.312-2.227-18.094-6.68-4.78-4.452-7.17-10.366-7.17-17.74zm51.594 40.923v-64.03h14.766v5.39c3.594-4.344 8.172-6.53 13.734-6.562 6.03 0 10.93 2.15 14.695 6.446 3.766 4.297 5.648 10.242 5.648 17.836 0 7.688-1.89 13.68-5.672 17.977-3.78 4.296-8.672 6.444-14.672 6.444-5.437 0-10.015-2.22-13.733-6.656v23.156h-14.765z"/></defs><clipPath xmlns="http://www.w3.org/2000/svg" xmlns:xlink="http://www.w3.org/1999/xlink" id="b"><use xlink:href="#a" overflow="visible"/></clipPath><path fill="#fff" clip-path="url(#b)" fill-rule="evenodd" clip-rule="evenodd" d="M0 0h288.5v92.828H0z"/><defs xmlns="http://www.w3.org/2000/svg"><path id="c" d="M184.397 41.14l.645-.24.225-.676C188.28 31.18 196.437 25 205.72 25c7.548 0 14.427 4.083 18.364 10.672l.285.476.512.16c3.452 1.08 6.4 3.493 8.252 6.726l.307.536.58.145c5.23 1.312 8.98 6.238 8.98 11.957 0 6.923-5.722 13.287-12.07 13.287H213.2V56.234h6.395c1.217 0 1.743-.876 1.176-1.956 0 0-11.272-16.934-13.272-16.934S194.23 54.28 194.23 54.28c-.567 1.078-.04 1.955 1.175 1.955h6.285V68.96H196.608l-12.352.04C177.632 67.565 174 62.304 174 56.17c0-6.78 5.356-13.173 10.397-15.03z"/></defs><clipPath xmlns="http://www.w3.org/2000/svg" xmlns:xlink="http://www.w3.org/1999/xlink" id="d"><use xlink:href="#c" overflow="visible"/></clipPath><path clip-path="url(#d)" fill-rule="evenodd" clip-rule="evenodd" fill="#66bb4e" d="M169 20h79v54h-79z"/></symbol><symbol id="spinning-bubbles" viewBox="0 0 32 32"/></svg>