<?xml version="1.0" encoding="utf-8"?>
<!-- Generator: Adobe Illustrator 16.0.0, SVG Export Plug-In . SVG Version: 6.00 Build 0)  -->
<!DOCTYPE svg PUBLIC "-//W3C//DTD SVG 1.1//EN" "http://www.w3.org/Graphics/SVG/1.1/DTD/svg11.dtd">
<svg version="1.1" id="Layer_1" xmlns="http://www.w3.org/2000/svg" xmlns:xlink="http://www.w3.org/1999/xlink" x="0px" y="0px"
	 width="36px" height="36px" viewBox="0 0 36 36" enable-background="new 0 0 36 36" xml:space="preserve">
<g>
	<defs>
		<rect id="SVGID_1_" width="36" height="36"/>
	</defs>
	<clipPath id="SVGID_2_">
		<use xlink:href="#SVGID_1_"  overflow="visible"/>
	</clipPath>
	<rect x="14" y="25" clip-path="url(#SVGID_2_)" fill="#FFFFFF" width="7.999" height="1"/>
	<path clip-path="url(#SVGID_2_)" fill="#FFFFFF" d="M29,10H7v19h22V10z M28,28H8v-5h20V28z M28,22H8v-5h20V22z M28,16H8v-5h20V16z"
		/>
	<rect x="14" y="19" clip-path="url(#SVGID_2_)" fill="#FFFFFF" width="7.999" height="1"/>
	<rect x="14" y="12.999" clip-path="url(#SVGID_2_)" fill="#FFFFFF" width="7.999" height="1.001"/>
</g>
<g>
	<defs>
		<rect id="SVGID_3_" width="36" height="36"/>
	</defs>
	<clipPath id="SVGID_4_">
		<use xlink:href="#SVGID_3_"  overflow="visible"/>
	</clipPath>
	<g clip-path="url(#SVGID_4_)">
		<defs>
			<rect id="SVGID_5_" width="36" height="36"/>
		</defs>
		<clipPath id="SVGID_6_">
			<use xlink:href="#SVGID_5_"  overflow="visible"/>
		</clipPath>
		<path clip-path="url(#SVGID_6_)" fill="#FFFFFF" d="M33.661,5.887l-2.01-3C31.28,2.333,30.657,2,29.99,2H5.999
			C5.33,2,4.706,2.334,4.335,2.891l-1.997,3c-0.214,0.321-0.327,0.69-0.336,1.061C1.998,7.136,2.002,32,2.002,32
			c0,1.104,0.894,2,1.998,2h28c1.104,0,2-0.896,2-2V6.967C33.994,6.589,33.88,6.213,33.661,5.887 M32,32H4V8h28V32z M4,7l1.999-3
			H29.99L32,7H4z"/>
	</g>
</g>
</svg>
