<!-- Generator: Adobe Illustrator 17.0.0, SVG Export Plug-In  -->
<svg version="1.1"
   xmlns="http://www.w3.org/2000/svg" xmlns:xlink="http://www.w3.org/1999/xlink" xmlns:a="http://ns.adobe.com/AdobeSVGViewerExtensions/3.0/"
   x="0px" y="0px" width="288.5px" height="92.828px" viewBox="0 0 288.5 92.828" enable-background="new 0 0 288.5 92.828"
   xml:space="preserve">
<defs>
</defs>
<g>
  <defs>
    <path id="SVGID_1_" d="M10.766,29.062C14.609,24.687,19.5,22.5,25.438,22.5c5.625,0,10.203,2.219,13.734,6.656V6h14.719v64.031
      H39.172v-5.391c-3.781,4.344-8.359,6.531-13.734,6.562c-5.938,0-10.828-2.164-14.672-6.492C6.922,60.383,5,54.406,5,46.781
      C5,39.344,6.922,33.438,10.766,29.062z M246.797,22.672l10.594,29.391l10.453-29.391H283.5l-20.953,52.969
      c-1.719,4.531-4.18,7.664-7.383,9.398c-3.203,1.734-7.273,2.664-12.211,2.789c-2.562,0-4.672-0.25-6.328-0.75l2.109-13.172
      c1.031,0.562,2.25,0.859,3.656,0.891c3.469,0,5.578-0.859,6.328-2.578l1.078-2.531l-4.882-12.397
      c0.056-0.505,0.085-1.014,0.085-1.527c0-4.16-1.841-7.928-4.763-10.351l-8.956-22.741H246.797z M72.812,40.625h19.078
      c-0.25-1.906-1.141-3.586-2.672-5.039c-1.531-1.453-3.844-2.18-6.938-2.18c-2.938,0-5.172,0.711-6.703,2.133
      C74.047,36.961,73.125,38.656,72.812,40.625z M161.844,5h14.766v39.905C173.936,47.971,172,52.063,172,56.294
      c0,4.225,1.597,8.062,4.609,10.666v2.072h-14.766V5z M20.094,45.805c0,3.391,0.961,6.125,2.883,8.203
      c1.922,2.078,4.352,3.117,7.289,3.117c1.594,0,3.242-0.398,4.945-1.195c1.703-0.797,3.023-1.805,3.961-3.023V38.703
      c-0.969-1.219-2.297-2.211-3.984-2.977c-1.688-0.766-3.328-1.148-4.922-1.148c-3,0-5.445,1.023-7.336,3.07
      C21.039,39.695,20.094,42.414,20.094,45.805z M124.078,52.906c0.906,1.219,2.203,2.227,3.891,3.023
      c1.688,0.797,3.328,1.195,4.922,1.195c2.938,0,5.375-1.023,7.312-3.07c1.938-2.047,2.906-4.805,2.906-8.273
      c0-3.406-0.961-6.125-2.883-8.156c-1.922-2.031-4.367-3.047-7.336-3.047c-1.594,0-3.234,0.398-4.922,1.195
      c-1.688,0.797-2.984,1.805-3.891,3.023V52.906z M57.719,45.781c0-6.844,2.305-12.602,6.914-17.273
      c4.609-4.672,10.492-7.008,17.648-7.008c6.969,0,12.664,2.352,17.086,7.055C103.789,33.258,106,39.516,106,47.328v3.375H73
      c0.562,2.25,1.836,4.078,3.82,5.484c1.984,1.406,4.586,2.109,7.805,2.109c1.781,0,3.789-0.367,6.023-1.102
      c2.234-0.734,3.992-1.68,5.273-2.836l6.469,9.703c-2.25,1.969-5.117,3.484-8.602,4.547s-7.086,1.594-10.805,1.594
      c-7.281,0-13.312-2.227-18.094-6.68C60.109,59.07,57.719,53.156,57.719,45.781z M109.312,86.703V22.672h14.766v5.391
      c3.594-4.344,8.172-6.531,13.734-6.562c6.031,0,10.93,2.148,14.695,6.445c3.766,4.297,5.648,10.242,5.648,17.836
      c0,7.688-1.891,13.68-5.672,17.977c-3.781,4.297-8.672,6.445-14.672,6.445c-5.438,0-10.016-2.219-13.734-6.656v23.156H109.312z"/>
  </defs>
  <clipPath id="SVGID_2_">
    <use xlink:href="#SVGID_1_"  overflow="visible"/>
  </clipPath>
  <rect fill="#ffffff" x="0" y="0" clip-path="url(#SVGID_2_)" fill-rule="evenodd" clip-rule="evenodd" width="288.5" height="92.828"/>
</g>
<g>
  <defs>
    <path id="SVGID_3_" d="M184.397,41.139l0.645-0.238l0.225-0.677C188.279,31.181,196.438,25,205.719,25
      c7.549,0,14.428,4.083,18.365,10.672l0.285,0.476l0.513,0.16c3.452,1.079,6.399,3.493,8.252,6.726l0.307,0.536l0.58,0.145
      c5.228,1.312,8.98,6.238,8.98,11.957c0,6.923-5.723,13.287-12.072,13.287h-17.727V56.235h6.395c1.217,0,1.743-0.876,1.176-1.956
      c0,0-11.272-16.933-13.272-16.933s-13.272,16.933-13.272,16.933c-0.566,1.079-0.04,1.956,1.176,1.956h6.285v12.724h-2.239h-2.843
      L184.256,69C177.632,67.565,174,62.304,174,56.169C174,49.391,179.356,42.997,184.397,41.139z"/>
  </defs>
  <clipPath id="SVGID_4_">
    <use xlink:href="#SVGID_3_"  overflow="visible"/>
  </clipPath>
  <rect x="169" y="20" clip-path="url(#SVGID_4_)" fill-rule="evenodd" clip-rule="evenodd" fill="#66bb4e" width="79" height="54"/>
</g>
</svg>
